<svg width="106" height="19" viewBox="0 0 106 19" fill="none" xmlns="http://www.w3.org/2000/svg">
<rect width="106" height="19" fill="black"/>
<path d="M11.5 1L13.8574 7.21885H21.4861L15.3143 11.0623L17.6717 17.2812L11.5 13.4377L5.32825 17.2812L7.68565 11.0623L1.51391 7.21885H9.1426L11.5 1Z" fill="#FF9839"/>
<path d="M32.5 1L34.8574 7.21885H42.4861L36.3143 11.0623L38.6717 17.2812L32.5 13.4377L26.3283 17.2812L28.6857 11.0623L22.5139 7.21885H30.1426L32.5 1Z" fill="#FF9839"/>
<path d="M53 1L55.2451 7.21885H62.5106L56.6327 11.0623L58.8779 17.2812L53 13.4377L47.1221 17.2812L49.3673 11.0623L43.4894 7.21885H50.7549L53 1Z" fill="#FF9839"/>
<path d="M73.5 1L75.8574 7.21885H83.4861L77.3143 11.0623L79.6717 17.2812L73.5 13.4377L67.3283 17.2812L69.6857 11.0623L63.5139 7.21885H71.1426L73.5 1Z" fill="#FF9839"/>
<path d="M94.5 1L96.8574 7.21885H104.486L98.3143 11.0623L100.672 17.2812L94.5 13.4377L88.3283 17.2812L90.6857 11.0623L84.5139 7.21885H92.1426L94.5 1Z" fill="#FF9839"/>
</svg>
