<svg width="284" height="121" viewBox="0 0 284 121" fill="none" xmlns="http://www.w3.org/2000/svg">
<path d="M142.198 66.117C142.198 70.1904 140.943 73.3237 138.417 75.517C135.891 77.7104 132.275 78.807 127.552 78.807C124.25 78.807 121.41 78.2274 118.983 77.0837C116.572 75.94 115.037 73.9974 115.037 73.9974C114.327 73.0574 114.376 71.6474 115.202 70.817L117.843 67.997C118.669 67.1667 119.825 67.2607 120.419 68.2007C120.419 68.2007 120.964 69.0937 122.566 70.0337C124.101 70.9737 125.802 71.4437 127.618 71.4437C129.484 71.4437 130.855 71.0207 131.796 70.2374C132.737 69.407 133.216 68.2477 133.216 66.681C133.216 65.318 132.555 64.0647 131.3 62.968C130.046 61.8714 127.783 60.4614 124.547 58.785C121.03 56.905 118.504 55.025 117.084 53.098C115.664 51.171 114.888 48.915 114.888 46.3144C114.888 42.664 116.143 39.7344 118.669 37.588C121.195 35.4417 124.597 34.345 128.939 34.345C131.581 34.345 133.876 34.815 135.858 35.755C137.839 36.695 139.424 38.3714 139.424 38.3714C140.2 39.2017 140.2 40.6117 139.375 41.4577L136.964 43.9644C136.138 44.7947 134.933 44.7477 134.223 43.8077C134.223 43.8077 134.008 43.4944 132.737 42.8207C131.482 42.0844 130.161 41.724 128.84 41.724C127.305 41.724 126.033 42.0844 125.158 42.8677C124.217 43.651 123.788 44.591 123.788 45.6877C123.788 47.928 128.394 51.124 128.394 51.124C129.385 51.7977 130.475 52.487 130.871 52.6907C131.251 52.8944 132.787 53.7874 133.843 54.367C133.843 54.367 138.4 57.187 139.936 59.114C141.373 61.0567 142.198 63.4067 142.198 66.117Z" fill="#FF9839"/>
<path d="M155.87 75.8303C155.87 76.974 154.879 77.914 153.674 77.914H149.282C148.076 77.914 147.086 76.974 147.086 75.8303V37.2903C147.086 36.1467 148.076 35.2067 149.282 35.2067H153.674C154.879 35.2067 155.87 36.1467 155.87 37.2903V75.8303Z" fill="#FF9839"/>
<path d="M201.112 75.8304C201.112 76.974 200.121 77.914 198.916 77.914H194.689C193.483 77.914 191.948 77.1307 191.287 76.1907L172.844 50.8107C172.183 49.8707 171.589 50.0274 171.589 51.171V75.8147C171.589 76.9584 170.598 77.8984 169.393 77.8984H165.166C163.96 77.8984 162.97 76.9584 162.97 75.8147V37.2747C162.97 36.131 163.96 35.191 165.166 35.191H169.393C170.598 35.191 172.134 35.9744 172.794 36.9144L191.188 62.1847C191.849 63.1247 192.443 62.968 192.443 61.8244V37.2904C192.443 36.1467 193.434 35.2067 194.639 35.2067H198.866C200.071 35.2067 201.062 36.1467 201.062 37.2904V75.8304H201.112Z" fill="#FF9839"/>
<path d="M240.64 59.2237C240.64 60.3673 240.525 62.2003 240.36 63.344C240.36 63.344 239.27 71.287 236.414 74.2637C233.607 77.2873 229.545 78.76 224.277 78.76C219.06 78.76 215.047 77.1933 212.191 74.107C209.334 71.0207 208.179 63.297 208.179 63.297C208.014 62.1533 207.898 60.3203 207.898 59.1767V37.2433C207.898 36.0997 208.889 35.1597 210.094 35.1597H214.767C215.972 35.1597 216.963 36.0997 216.963 37.2433V60.6337C216.963 61.7773 217.078 63.6103 217.244 64.754C217.244 64.754 217.623 67.527 218.829 68.937C220.084 70.347 221.9 71.0833 224.261 71.0833C226.738 71.0833 228.604 70.4097 229.809 68.9997C231.014 67.6367 231.344 64.7697 231.344 64.7697C231.51 63.626 231.625 61.793 231.625 60.6493V37.306C231.625 36.1623 232.616 35.2223 233.821 35.2223H238.494C239.699 35.2223 240.69 36.1623 240.69 37.306V59.2393H240.64V59.2237Z" fill="#FF9839"/>
<path d="M273.102 66.117C273.102 70.1904 271.847 73.3237 269.321 75.517C266.795 77.7104 263.162 78.807 258.456 78.807C255.154 78.807 252.298 78.2274 249.887 77.0837C247.476 75.94 245.941 73.9974 245.941 73.9974C245.231 73.0574 245.28 71.6474 246.106 70.817L248.748 67.997C249.573 67.1667 250.729 67.2607 251.323 68.2007C251.323 68.2007 251.868 69.0937 253.47 70.0337C255.006 70.9737 256.706 71.4437 258.523 71.4437C260.388 71.4437 261.759 71.0207 262.7 70.2374C263.641 69.407 264.136 68.2477 264.136 66.681C264.136 65.318 263.476 64.0647 262.221 62.968C260.966 61.8714 258.704 60.4614 255.468 58.785C251.951 56.905 249.425 55.025 248.005 53.098C246.585 51.171 245.809 48.915 245.809 46.3144C245.809 42.664 247.063 39.7344 249.59 37.588C252.116 35.4417 255.517 34.345 259.86 34.345C262.502 34.345 264.797 34.815 266.778 35.755C268.76 36.695 270.345 38.3714 270.345 38.3714C271.121 39.2017 271.121 40.6117 270.295 41.4577L267.885 43.9644C267.059 44.7947 265.854 44.7477 265.144 43.8077C265.144 43.8077 264.929 43.4944 263.658 42.8207C262.403 42.0844 261.082 41.724 259.761 41.724C258.225 41.724 256.954 42.0844 256.079 42.8677C255.154 43.651 254.708 44.591 254.708 45.6877C254.708 47.928 259.315 51.124 259.315 51.124C260.306 51.7977 261.396 52.487 261.792 52.6907C262.172 52.8944 263.707 53.7874 264.764 54.367C264.764 54.367 269.321 57.187 270.857 59.114C272.326 61.0567 273.102 63.4067 273.102 66.117Z" fill="#FF9839"/>
<path d="M48.957 106.333C75.8214 106.333 97.6003 85.622 97.6003 60.0697C97.6003 34.5174 75.8214 13.806 48.957 13.806C22.0926 13.806 0.297241 34.5174 0.297241 60.0697C0.297241 85.622 22.0761 106.333 48.957 106.333Z" fill="white"/>
<path d="M78.4468 48.1003V72.0233C78.4468 72.8537 77.7368 73.543 76.8617 73.543C75.9866 73.543 75.2766 72.8693 75.2766 72.0233V48.1003C75.2766 45.2803 72.8659 42.9773 69.8938 42.9773C66.9217 42.9773 64.511 45.2803 64.511 48.1003V72.0233C64.511 76.5197 60.6638 80.17 55.9415 80.17C51.2191 80.17 47.3719 76.5197 47.3719 72.0233V48.1003C47.3719 45.2803 44.9612 42.9773 41.9891 42.9773C39.0171 42.9773 36.6064 45.2803 36.6064 48.1003V72.0233C36.6064 76.5197 32.7591 80.17 28.0368 80.17C23.3145 80.17 19.4673 76.5197 19.4673 72.0233V48.1003C19.4673 47.27 20.1773 46.5807 21.0524 46.5807C21.9275 46.5807 22.6375 47.2543 22.6375 48.1003V72.0233C22.6375 74.8433 25.0482 77.1463 28.0203 77.1463C30.9924 77.1463 33.4031 74.8433 33.4031 72.0233V48.1003C33.4031 43.604 37.2503 39.9537 41.9726 39.9537C46.695 39.9537 50.5422 43.604 50.5422 48.1003V72.0233C50.5422 74.8433 52.9529 77.1463 55.925 77.1463C58.897 77.1463 61.3078 74.8433 61.3078 72.0233V48.1003C61.3078 43.604 65.155 39.9537 69.8773 39.9537C74.5996 39.9537 78.4468 43.6197 78.4468 48.1003Z" fill="#FF9839"/>
<path d="M121.79 94.8967C121.79 95.7897 121.443 96.479 120.766 96.9647C120.089 97.466 119.164 97.701 118.009 97.701C116.754 97.701 115.78 97.5443 115.103 97.2467V96.1187C115.532 96.291 116.011 96.432 116.523 96.526C117.034 96.62 117.546 96.6827 118.042 96.6827C118.867 96.6827 119.478 96.5417 119.891 96.244C120.304 95.9463 120.518 95.539 120.518 95.0063C120.518 94.6617 120.436 94.3797 120.287 94.1603C120.139 93.941 119.891 93.7217 119.544 93.5337C119.197 93.3457 118.669 93.1263 117.976 92.8913C116.985 92.5623 116.275 92.155 115.862 91.7007C115.449 91.2463 115.235 90.6353 115.235 89.899C115.235 89.1157 115.548 88.5047 116.159 88.0503C116.77 87.596 117.579 87.361 118.603 87.361C119.66 87.361 120.634 87.549 121.509 87.9093L121.129 88.9277C120.254 88.583 119.396 88.4107 118.57 88.4107C117.91 88.4107 117.414 88.5517 117.034 88.8023C116.671 89.0687 116.49 89.4447 116.49 89.9147C116.49 90.2593 116.556 90.557 116.688 90.7763C116.82 90.9957 117.051 91.1993 117.365 91.3873C117.695 91.5753 118.19 91.779 118.851 91.9983C119.957 92.3743 120.733 92.7817 121.146 93.2047C121.575 93.6433 121.79 94.2073 121.79 94.8967ZM134.586 97.5757H133.133L129.27 92.6877L128.163 93.6277V97.5757H126.925V87.5177H128.163V92.5153L132.968 87.5177H134.421L130.161 91.8887L134.586 97.5757ZM145.699 97.5757L144.378 94.3797H140.118L138.813 97.5757H137.558L141.752 87.4707H142.793L146.97 97.5757H145.699ZM143.981 93.3143L142.743 90.1967C142.578 89.805 142.413 89.3193 142.248 88.7397C142.149 89.1783 141.983 89.664 141.785 90.1967L140.53 93.3143H143.981ZM154.664 97.5757H153.426V88.5517H150.074V87.5177H158.033V88.5517H154.681V97.5757H154.664ZM168.518 97.5757H162.606V87.5177H168.518V88.5517H163.845V91.7947H168.237V92.8287H163.845V96.526H168.518V97.5757ZM173.851 87.502H176.856C178.26 87.502 179.283 87.7057 179.911 88.0973C180.538 88.489 180.852 89.1313 180.852 89.993C180.852 90.5883 180.67 91.0897 180.323 91.4657C179.977 91.8573 179.465 92.108 178.788 92.2177V92.2803C180.39 92.5467 181.199 93.3457 181.199 94.693C181.199 95.586 180.885 96.291 180.241 96.7923C179.597 97.2937 178.705 97.5443 177.55 97.5443H173.851V87.502ZM175.073 91.8103H177.104C177.979 91.8103 178.606 91.685 178.986 91.4187C179.366 91.1523 179.564 90.7137 179.564 90.1027C179.564 89.5387 179.349 89.1313 178.92 88.8807C178.491 88.63 177.814 88.5047 176.889 88.5047H175.073V91.8103ZM175.073 92.813V96.573H177.285C178.144 96.573 178.788 96.4163 179.217 96.103C179.646 95.7897 179.861 95.2883 179.861 94.6303C179.861 94.0037 179.646 93.5493 179.201 93.2517C178.755 92.954 178.094 92.813 177.186 92.813H175.073ZM195.663 92.531C195.663 94.1447 195.233 95.4137 194.375 96.338C193.516 97.2623 192.327 97.7167 190.792 97.7167C189.223 97.7167 188.018 97.2623 187.176 96.3537C186.334 95.445 185.904 94.1603 185.904 92.5153C185.904 90.8703 186.334 89.6013 187.176 88.7083C188.018 87.7997 189.24 87.3453 190.808 87.3453C192.327 87.3453 193.516 87.7997 194.375 88.724C195.233 89.6483 195.663 90.9017 195.663 92.531ZM187.209 92.531C187.209 93.894 187.506 94.928 188.117 95.633C188.728 96.338 189.62 96.6827 190.792 96.6827C191.964 96.6827 192.856 96.338 193.45 95.633C194.045 94.928 194.342 93.894 194.342 92.531C194.342 91.1837 194.045 90.1497 193.45 89.4603C192.856 88.7553 191.964 88.4107 190.808 88.4107C189.636 88.4107 188.744 88.771 188.117 89.476C187.506 90.1497 187.209 91.1837 187.209 92.531ZM207.667 97.5757L206.346 94.3797H202.086L200.781 97.5757H199.526L203.72 87.4707H204.761L208.938 97.5757H207.667ZM205.966 93.3143L204.744 90.1967C204.579 89.805 204.414 89.3193 204.249 88.7397C204.133 89.1783 203.985 89.664 203.786 90.1967L202.532 93.3143H205.966ZM214.618 93.3927V97.5757H213.38V87.5177H216.286C217.59 87.5177 218.548 87.7527 219.159 88.2227C219.786 88.6927 220.1 89.4133 220.1 90.3533C220.1 91.685 219.39 92.578 217.97 93.048L220.843 97.5757H219.39L216.831 93.3927H214.618ZM214.618 92.3743H216.302C217.177 92.3743 217.805 92.2177 218.218 91.8887C218.63 91.5597 218.829 91.0583 218.829 90.416C218.829 89.758 218.614 89.2723 218.201 88.9747C217.788 88.677 217.128 88.536 216.22 88.536H214.618V92.3743ZM234.003 92.437C234.003 94.0977 233.524 95.3667 232.566 96.244C231.625 97.1213 230.255 97.56 228.471 97.56H225.532V87.502H228.785C230.436 87.502 231.724 87.9407 232.632 88.8023C233.557 89.6797 234.003 90.886 234.003 92.437ZM232.698 92.484C232.698 91.168 232.352 90.181 231.658 89.523C230.965 88.865 229.941 88.5203 228.57 88.5203H226.771V96.5573H228.273C229.743 96.5573 230.849 96.2127 231.592 95.539C232.335 94.8497 232.698 93.8313 232.698 92.484ZM245.346 94.8967C245.346 95.7897 244.999 96.479 244.323 96.9647C243.646 97.466 242.721 97.701 241.565 97.701C240.31 97.701 239.336 97.5443 238.659 97.2467V96.1187C239.088 96.291 239.567 96.432 240.079 96.526C240.591 96.62 241.103 96.6827 241.598 96.6827C242.424 96.6827 243.035 96.5417 243.447 96.244C243.86 95.9463 244.075 95.539 244.075 95.0063C244.075 94.6617 243.992 94.3797 243.844 94.1603C243.695 93.941 243.447 93.7217 243.101 93.5337C242.754 93.3457 242.226 93.1263 241.532 92.8913C240.541 92.5623 239.831 92.155 239.419 91.7007C239.006 91.2463 238.791 90.6353 238.791 89.899C238.791 89.1157 239.105 88.5047 239.716 88.0503C240.327 87.596 241.136 87.361 242.16 87.361C243.216 87.361 244.19 87.549 245.066 87.9093L244.686 88.9277C243.811 88.583 242.952 88.4107 242.126 88.4107C241.466 88.4107 240.971 88.5517 240.591 88.8023C240.228 89.0687 240.046 89.4447 240.046 89.9147C240.046 90.2593 240.112 90.557 240.244 90.7763C240.376 90.9957 240.607 91.1993 240.921 91.3873C241.251 91.5753 241.73 91.779 242.407 91.9983C243.513 92.3743 244.289 92.7817 244.702 93.2047C245.132 93.6433 245.346 94.2073 245.346 94.8967Z" fill="#FF9839"/>
</svg>
