<svg width="180" height="50" viewBox="0 0 180 50" fill="none" xmlns="http://www.w3.org/2000/svg">
<rect x="1" y="1" width="178" height="48" rx="9" fill="black" stroke="white" stroke-width="2"/>
<path d="M19.4062 31H17.0234V19.5781H23.5703V21.5625H19.4062V24.5078H23.2812V26.4844H19.4062V31ZM36.1719 25.2734C36.1719 27.1641 35.7031 28.6172 34.7656 29.6328C33.8281 30.6484 32.4844 31.1562 30.7344 31.1562C28.9844 31.1562 27.6406 30.6484 26.7031 29.6328C25.7656 28.6172 25.2969 27.1589 25.2969 25.2578C25.2969 23.3568 25.7656 21.9062 26.7031 20.9062C27.6458 19.901 28.9948 19.3984 30.75 19.3984C32.5052 19.3984 33.8464 19.9036 34.7734 20.9141C35.7057 21.9245 36.1719 23.3776 36.1719 25.2734ZM27.8359 25.2734C27.8359 26.5495 28.0781 27.5104 28.5625 28.1562C29.0469 28.8021 29.7708 29.125 30.7344 29.125C32.6667 29.125 33.6328 27.8411 33.6328 25.2734C33.6328 22.7005 32.6719 21.4141 30.75 21.4141C29.7865 21.4141 29.0599 21.7396 28.5703 22.3906C28.0807 23.0365 27.8359 23.9974 27.8359 25.2734ZM40.9609 24.6484H41.7422C42.5078 24.6484 43.0729 24.5208 43.4375 24.2656C43.8021 24.0104 43.9844 23.6094 43.9844 23.0625C43.9844 22.5208 43.7969 22.1354 43.4219 21.9062C43.0521 21.6771 42.4766 21.5625 41.6953 21.5625H40.9609V24.6484ZM40.9609 26.6172V31H38.5391V19.5781H41.8672C43.4193 19.5781 44.5677 19.862 45.3125 20.4297C46.0573 20.9922 46.4297 21.849 46.4297 23C46.4297 23.6719 46.2448 24.2708 45.875 24.7969C45.5052 25.3177 44.9818 25.7266 44.3047 26.0234C46.0234 28.5911 47.1432 30.25 47.6641 31H44.9766L42.25 26.6172H40.9609ZM55.8438 27.8281C55.8438 28.8594 55.4714 29.6719 54.7266 30.2656C53.987 30.8594 52.9557 31.1562 51.6328 31.1562C50.4141 31.1562 49.3359 30.9271 48.3984 30.4688V28.2188C49.1693 28.5625 49.8203 28.8047 50.3516 28.9453C50.888 29.0859 51.3776 29.1562 51.8203 29.1562C52.3516 29.1562 52.7578 29.0547 53.0391 28.8516C53.3255 28.6484 53.4688 28.3464 53.4688 27.9453C53.4688 27.7214 53.4062 27.5234 53.2812 27.3516C53.1562 27.1745 52.9714 27.0052 52.7266 26.8438C52.487 26.6823 51.9948 26.4245 51.25 26.0703C50.5521 25.7422 50.0286 25.4271 49.6797 25.125C49.3307 24.8229 49.0521 24.4714 48.8438 24.0703C48.6354 23.6693 48.5312 23.2005 48.5312 22.6641C48.5312 21.6536 48.8724 20.8594 49.5547 20.2812C50.2422 19.7031 51.1901 19.4141 52.3984 19.4141C52.9922 19.4141 53.5573 19.4844 54.0938 19.625C54.6354 19.7656 55.2005 19.9635 55.7891 20.2188L55.0078 22.1016C54.3984 21.8516 53.8932 21.6771 53.4922 21.5781C53.0964 21.4792 52.7057 21.4297 52.3203 21.4297C51.862 21.4297 51.5104 21.5365 51.2656 21.75C51.0208 21.9635 50.8984 22.2422 50.8984 22.5859C50.8984 22.7995 50.9479 22.987 51.0469 23.1484C51.1458 23.3047 51.3021 23.4583 51.5156 23.6094C51.7344 23.7552 52.2474 24.0208 53.0547 24.4062C54.1224 24.9167 54.8542 25.4297 55.25 25.9453C55.6458 26.4557 55.8438 27.0833 55.8438 27.8281ZM62.3203 31H59.8984V21.5938H56.7969V19.5781H65.4219V21.5938H62.3203V31ZM74.1719 31L73.3438 28.2812H69.1797L68.3516 31H65.7422L69.7734 19.5312H72.7344L76.7812 31H74.1719ZM72.7656 26.25C72 23.7865 71.5677 22.3932 71.4688 22.0703C71.375 21.7474 71.3073 21.4922 71.2656 21.3047C71.0938 21.9714 70.6016 23.6198 69.7891 26.25H72.7656ZM68.5938 17.3828C68.5938 17.0443 68.6901 16.7839 68.8828 16.6016C69.0807 16.4193 69.3464 16.3281 69.6797 16.3281C70.0234 16.3281 70.2917 16.4245 70.4844 16.6172C70.6823 16.8099 70.7812 17.0651 70.7812 17.3828C70.7812 17.6953 70.6823 17.9479 70.4844 18.1406C70.2865 18.3281 70.0182 18.4219 69.6797 18.4219C69.3464 18.4219 69.0807 18.3307 68.8828 18.1484C68.6901 17.9661 68.5938 17.7109 68.5938 17.3828ZM71.7422 17.3828C71.7422 17.0182 71.8464 16.7526 72.0547 16.5859C72.2682 16.4141 72.5312 16.3281 72.8438 16.3281C73.1823 16.3281 73.4505 16.4219 73.6484 16.6094C73.8516 16.7969 73.9531 17.0547 73.9531 17.3828C73.9531 17.7005 73.8516 17.9531 73.6484 18.1406C73.4453 18.3281 73.1771 18.4219 72.8438 18.4219C72.5312 18.4219 72.2682 18.3385 72.0547 18.1719C71.8464 18 71.7422 17.737 71.7422 17.3828ZM82.6328 31H80.2109V21.5938H77.1094V19.5781H85.7344V21.5938H82.6328V31ZM91.8984 31H89.4766V21.5938H86.375V19.5781H95V21.5938H91.8984V31ZM107.656 27.8281C107.656 28.8594 107.284 29.6719 106.539 30.2656C105.799 30.8594 104.768 31.1562 103.445 31.1562C102.227 31.1562 101.148 30.9271 100.211 30.4688V28.2188C100.982 28.5625 101.633 28.8047 102.164 28.9453C102.701 29.0859 103.19 29.1562 103.633 29.1562C104.164 29.1562 104.57 29.0547 104.852 28.8516C105.138 28.6484 105.281 28.3464 105.281 27.9453C105.281 27.7214 105.219 27.5234 105.094 27.3516C104.969 27.1745 104.784 27.0052 104.539 26.8438C104.299 26.6823 103.807 26.4245 103.062 26.0703C102.365 25.7422 101.841 25.4271 101.492 25.125C101.143 24.8229 100.865 24.4714 100.656 24.0703C100.448 23.6693 100.344 23.2005 100.344 22.6641C100.344 21.6536 100.685 20.8594 101.367 20.2812C102.055 19.7031 103.003 19.4141 104.211 19.4141C104.805 19.4141 105.37 19.4844 105.906 19.625C106.448 19.7656 107.013 19.9635 107.602 20.2188L106.82 22.1016C106.211 21.8516 105.706 21.6771 105.305 21.5781C104.909 21.4792 104.518 21.4297 104.133 21.4297C103.674 21.4297 103.323 21.5365 103.078 21.75C102.833 21.9635 102.711 22.2422 102.711 22.5859C102.711 22.7995 102.76 22.987 102.859 23.1484C102.958 23.3047 103.115 23.4583 103.328 23.6094C103.547 23.7552 104.06 24.0208 104.867 24.4062C105.935 24.9167 106.667 25.4297 107.062 25.9453C107.458 26.4557 107.656 27.0833 107.656 27.8281ZM119.086 31H116.672V26.0703H112.148V31H109.727V19.5781H112.148V24.0547H116.672V19.5781H119.086V31ZM132.344 25.2734C132.344 27.1641 131.875 28.6172 130.938 29.6328C130 30.6484 128.656 31.1562 126.906 31.1562C125.156 31.1562 123.812 30.6484 122.875 29.6328C121.938 28.6172 121.469 27.1589 121.469 25.2578C121.469 23.3568 121.938 21.9062 122.875 20.9062C123.818 19.901 125.167 19.3984 126.922 19.3984C128.677 19.3984 130.018 19.9036 130.945 20.9141C131.878 21.9245 132.344 23.3776 132.344 25.2734ZM124.008 25.2734C124.008 26.5495 124.25 27.5104 124.734 28.1562C125.219 28.8021 125.943 29.125 126.906 29.125C128.839 29.125 129.805 27.8411 129.805 25.2734C129.805 22.7005 128.844 21.4141 126.922 21.4141C125.958 21.4141 125.232 21.7396 124.742 22.3906C124.253 23.0365 124.008 23.9974 124.008 25.2734ZM137.133 24.9531H137.93C138.674 24.9531 139.232 24.8073 139.602 24.5156C139.971 24.2188 140.156 23.7891 140.156 23.2266C140.156 22.6589 140 22.2396 139.688 21.9688C139.38 21.6979 138.896 21.5625 138.234 21.5625H137.133V24.9531ZM142.602 23.1406C142.602 24.3698 142.216 25.3099 141.445 25.9609C140.68 26.612 139.589 26.9375 138.172 26.9375H137.133V31H134.711V19.5781H138.359C139.745 19.5781 140.797 19.8776 141.516 20.4766C142.24 21.0703 142.602 21.9583 142.602 23.1406ZM147.18 24.9531H147.977C148.721 24.9531 149.279 24.8073 149.648 24.5156C150.018 24.2188 150.203 23.7891 150.203 23.2266C150.203 22.6589 150.047 22.2396 149.734 21.9688C149.427 21.6979 148.943 21.5625 148.281 21.5625H147.18V24.9531ZM152.648 23.1406C152.648 24.3698 152.263 25.3099 151.492 25.9609C150.727 26.612 149.635 26.9375 148.219 26.9375H147.18V31H144.758V19.5781H148.406C149.792 19.5781 150.844 19.8776 151.562 20.4766C152.286 21.0703 152.648 21.9583 152.648 23.1406ZM161.797 31L160.969 28.2812H156.805L155.977 31H153.367L157.398 19.5312H160.359L164.406 31H161.797ZM160.391 26.25C159.625 23.7865 159.193 22.3932 159.094 22.0703C159 21.7474 158.932 21.4922 158.891 21.3047C158.719 21.9714 158.227 23.6198 157.414 26.25H160.391Z" fill="white"/>
</svg>
