<svg width="121" height="121" viewBox="0 0 121 121" fill="none" xmlns="http://www.w3.org/2000/svg">
<g filter="url(#filter0_d)">
<rect width="116" height="116" rx="10" fill="white"/>
</g>
<path d="M78.5834 25.5H24.4167C18.4336 25.5 13.5834 30.3502 13.5834 36.3333V71C13.5834 76.9831 18.4336 81.8333 24.4167 81.8333H78.5834C84.5664 81.8333 89.4167 76.9831 89.4167 71V36.3333C89.4167 30.3502 84.5664 25.5 78.5834 25.5Z" fill="url(#paint0_linear)"/>
<path d="M87.3802 30.0283C86.6636 29.9115 85.9395 29.8464 85.2136 29.8333H35.1852C31.7374 29.8333 28.4308 31.203 25.9929 33.6409C23.5549 36.0789 22.1852 39.3855 22.1852 42.8333V73.1667C22.1865 76.365 23.3668 79.4506 25.5002 81.8333H78.5836C81.4568 81.8333 84.2123 80.692 86.2439 78.6603C88.2755 76.6287 89.4169 73.8732 89.4169 71V36.3333C89.4132 34.0705 88.701 31.8657 87.3802 30.0283Z" fill="url(#paint1_linear)"/>
<path d="M91.5834 34.1667H37.4167C31.4336 34.1667 26.5834 39.0169 26.5834 45V79.6667C26.5834 85.6498 31.4336 90.5 37.4167 90.5H91.5834C97.5664 90.5 102.417 85.6498 102.417 79.6667V45C102.417 39.0169 97.5664 34.1667 91.5834 34.1667Z" fill="url(#paint2_linear)"/>
<path d="M102.417 49.3333H26.5834V58H102.417V49.3333Z" fill="#333333"/>
<path d="M93.75 62.3333H59.0834V68.8333H93.75V62.3333Z" fill="white"/>
<path d="M52.5833 77.5H35.25V81.8333H52.5833V77.5Z" fill="#E6E6E6"/>
<path d="M72.0834 77.5H59.0834V81.8333H72.0834V77.5Z" fill="#E6E6E6"/>
<path d="M93.75 77.5H78.5834V81.8333H93.75V77.5Z" fill="#E6E6E6"/>
<path d="M52.5833 75.3334H35.25V79.6667H52.5833V75.3334Z" fill="#E5E5E5"/>
<path d="M72.0834 75.3334H59.0834V79.6667H72.0834V75.3334Z" fill="#E5E5E5"/>
<path d="M93.75 75.3334H78.5834V79.6667H93.75V75.3334Z" fill="#E5E5E5"/>
<defs>
<filter id="filter0_d" x="0" y="0" width="121" height="121" filterUnits="userSpaceOnUse" color-interpolation-filters="sRGB">
<feFlood flood-opacity="0" result="BackgroundImageFix"/>
<feColorMatrix in="SourceAlpha" type="matrix" values="0 0 0 0 0 0 0 0 0 0 0 0 0 0 0 0 0 0 127 0"/>
<feOffset dx="3" dy="3"/>
<feGaussianBlur stdDeviation="1"/>
<feColorMatrix type="matrix" values="0 0 0 0 0 0 0 0 0 0 0 0 0 0 0 0 0 0 0.5 0"/>
<feBlend mode="normal" in2="BackgroundImageFix" result="effect1_dropShadow"/>
<feBlend mode="normal" in="SourceGraphic" in2="effect1_dropShadow" result="shape"/>
</filter>
<linearGradient id="paint0_linear" x1="51.5" y1="25.3917" x2="51.5" y2="83.9567" gradientUnits="userSpaceOnUse">
<stop stop-color="#66BCEF"/>
<stop offset="1" stop-color="#4096C9"/>
</linearGradient>
<linearGradient id="paint1_linear" x1="951.327" y1="-313.887" x2="1370.68" y2="1410.88" gradientUnits="userSpaceOnUse">
<stop stop-color="#66BCEF"/>
<stop offset="1" stop-color="#4096C9"/>
</linearGradient>
<linearGradient id="paint2_linear" x1="64.5" y1="34.0584" x2="64.5" y2="92.6234" gradientUnits="userSpaceOnUse">
<stop stop-color="#E6E6E6"/>
<stop offset="1" stop-color="#BABABA"/>
</linearGradient>
</defs>
</svg>
