<svg width="38" height="38" viewBox="0 0 38 38" fill="none" xmlns="http://www.w3.org/2000/svg">
<path d="M7.97323 22.0536H31.1875C31.4419 22.0538 31.6893 21.9704 31.8917 21.8162C32.0941 21.6621 32.2402 21.4457 32.3076 21.2004L35.7898 8.43258C35.8371 8.26023 35.844 8.07927 35.81 7.9038C35.7759 7.72834 35.7018 7.56311 35.5934 7.421C35.485 7.27889 35.3452 7.16373 35.185 7.08451C35.0248 7.00529 34.8484 6.96414 34.6697 6.96428H7.82814L7.39288 4.43972C7.34466 4.16826 7.20139 3.92282 6.98871 3.74737C6.77603 3.57191 6.50784 3.47788 6.23216 3.48213H3.33038C3.02254 3.48213 2.7273 3.60442 2.50963 3.8221C2.29195 4.03977 2.16966 4.33501 2.16966 4.64285C2.16966 4.95069 2.29195 5.24592 2.50963 5.4636C2.7273 5.68127 3.02254 5.80356 3.33038 5.80356H5.26297L7.74689 19.7321C6.66945 19.7621 5.64806 20.2189 4.90742 21.002C4.16678 21.7851 3.76755 22.8304 3.79756 23.9078C3.82758 24.9852 4.28438 26.0066 5.06747 26.7473C5.85056 27.4879 6.89579 27.8871 7.97323 27.8571H8.94823C8.65335 28.4764 8.52005 29.1602 8.56075 29.8449C8.60145 30.5295 8.81483 31.1927 9.18101 31.7727C9.54718 32.3526 10.0542 32.8304 10.6549 33.1615C11.2555 33.4926 11.9302 33.6663 12.6161 33.6663C13.302 33.6663 13.9767 33.4926 14.5773 33.1615C15.178 32.8304 15.685 32.3526 16.0512 31.7727C16.4173 31.1927 16.6307 30.5295 16.6714 29.8449C16.7121 29.1602 16.5788 28.4764 16.2839 27.8571H22.2964C22.0016 28.4764 21.8683 29.1602 21.909 29.8449C21.9497 30.5295 22.163 31.1927 22.5292 31.7727C22.8954 32.3526 23.4024 32.8304 24.0031 33.1615C24.6037 33.4926 25.2784 33.6663 25.9643 33.6663C26.6502 33.6663 27.3249 33.4926 27.9255 33.1615C28.5262 32.8304 29.0332 32.3526 29.3994 31.7727C29.7656 31.1927 29.9789 30.5295 30.0196 29.8449C30.0603 29.1602 29.927 28.4764 29.6322 27.8571H32.9286C33.2364 27.8571 33.5317 27.7348 33.7493 27.5172C33.967 27.2995 34.0893 27.0043 34.0893 26.6964C34.0893 26.3886 33.967 26.0933 33.7493 25.8757C33.5317 25.658 33.2364 25.5357 32.9286 25.5357H7.97323C7.51147 25.5357 7.06862 25.3523 6.74211 25.0258C6.4156 24.6992 6.23216 24.2564 6.23216 23.7946C6.23216 23.3329 6.4156 22.89 6.74211 22.5635C7.06862 22.237 7.51147 22.0536 7.97323 22.0536ZM33.1491 9.2857L30.2996 19.7321H10.1031L8.2402 9.2857H33.1491ZM14.3572 29.5982C14.3572 29.9426 14.2551 30.2792 14.0637 30.5655C13.8724 30.8518 13.6005 31.075 13.2824 31.2067C12.9642 31.3385 12.6142 31.373 12.2764 31.3058C11.9387 31.2386 11.6285 31.0728 11.385 30.8293C11.1415 30.5858 10.9757 30.2756 10.9085 29.9379C10.8413 29.6001 10.8758 29.2501 11.0076 28.9319C11.1393 28.6138 11.3625 28.3419 11.6488 28.1506C11.9351 27.9592 12.2717 27.8571 12.6161 27.8571C13.0779 27.8571 13.5207 28.0406 13.8472 28.3671C14.1737 28.6936 14.3572 29.1364 14.3572 29.5982ZM27.7054 29.5982C27.7054 29.9426 27.6033 30.2792 27.412 30.5655C27.2206 30.8518 26.9487 31.075 26.6306 31.2067C26.3124 31.3385 25.9624 31.373 25.6246 31.3058C25.2869 31.2386 24.9767 31.0728 24.7332 30.8293C24.4897 30.5858 24.3239 30.2756 24.2567 29.9379C24.1895 29.6001 24.224 29.2501 24.3558 28.9319C24.4875 28.6138 24.7107 28.3419 24.997 28.1506C25.2833 27.9592 25.62 27.8571 25.9643 27.8571C26.4261 27.8571 26.8689 28.0406 27.1954 28.3671C27.5219 28.6936 27.7054 29.1364 27.7054 29.5982Z" fill="#FF9839"/>
</svg>
