<svg width="32" height="32" viewBox="0 0 32 32" fill="none" xmlns="http://www.w3.org/2000/svg">
<path d="M5.5171 19.6887H27.5855C27.8273 19.6889 28.0625 19.6005 28.2549 19.4371C28.4473 19.2737 28.5862 19.0443 28.6503 18.7843L31.9606 5.24839C32.0056 5.06567 32.0122 4.87382 31.9798 4.6878C31.9474 4.50178 31.8769 4.32661 31.7739 4.17595C31.6708 4.02529 31.538 3.90321 31.3856 3.81922C31.2333 3.73524 31.0657 3.69161 30.8958 3.69176H5.37917L4.96539 1.01534C4.91955 0.727546 4.78335 0.467347 4.58117 0.281334C4.37899 0.0953206 4.12404 -0.0043582 3.86197 0.000146246H1.10342C0.810775 0.000146246 0.530115 0.129792 0.323184 0.360562C0.116253 0.591332 0 0.904324 0 1.23068C0 1.55704 0.116253 1.87003 0.323184 2.1008C0.530115 2.33157 0.810775 2.46122 1.10342 2.46122H2.94061L5.30193 17.2277C4.27767 17.2595 3.3067 17.7438 2.60262 18.574C1.89853 19.4042 1.51901 20.5123 1.54755 21.6545C1.57608 22.7968 2.01033 23.8796 2.75476 24.6648C3.4992 25.45 4.49284 25.8732 5.5171 25.8414H6.44397C6.16364 26.4979 6.03692 27.2229 6.07561 27.9487C6.11431 28.6746 6.31716 29.3777 6.66525 29.9925C7.01335 30.6073 7.49536 31.1138 8.06637 31.4649C8.63737 31.8159 9.27876 32 9.93078 32C10.5828 32 11.2242 31.8159 11.7952 31.4649C12.3662 31.1138 12.8482 30.6073 13.1963 29.9925C13.5444 29.3777 13.7472 28.6746 13.7859 27.9487C13.8246 27.2229 13.6979 26.4979 13.4176 25.8414H19.1333C18.853 26.4979 18.7262 27.2229 18.7649 27.9487C18.8036 28.6746 19.0065 29.3777 19.3546 29.9925C19.7027 30.6073 20.1847 31.1138 20.7557 31.4649C21.3267 31.8159 21.9681 32 22.6201 32C23.2721 32 23.9135 31.8159 24.4845 31.4649C25.0555 31.1138 25.5375 30.6073 25.8856 29.9925C26.2337 29.3777 26.4366 28.6746 26.4753 27.9487C26.514 27.2229 26.3872 26.4979 26.1069 25.8414H29.2406C29.5333 25.8414 29.8139 25.7118 30.0209 25.481C30.2278 25.2502 30.344 24.9372 30.344 24.6109C30.344 24.2845 30.2278 23.9715 30.0209 23.7408C29.8139 23.51 29.5333 23.3803 29.2406 23.3803H5.5171C5.07813 23.3803 4.65714 23.1859 4.34674 22.8397C4.03635 22.4936 3.86197 22.0241 3.86197 21.5345C3.86197 21.045 4.03635 20.5755 4.34674 20.2294C4.65714 19.8832 5.07813 19.6887 5.5171 19.6887ZM29.4503 6.15283L26.7414 17.2277H7.54187L5.77088 6.15283H29.4503ZM11.5859 27.6872C11.5859 28.0523 11.4888 28.4092 11.307 28.7127C11.1251 29.0162 10.8666 29.2528 10.5642 29.3925C10.2617 29.5322 9.92894 29.5688 9.60788 29.4976C9.28681 29.4263 8.9919 29.2505 8.76042 28.9924C8.52895 28.7343 8.37131 28.4054 8.30745 28.0473C8.24359 27.6893 8.27636 27.3181 8.40164 26.9809C8.52691 26.6436 8.73905 26.3553 9.01124 26.1525C9.28342 25.9497 9.60342 25.8414 9.93078 25.8414C10.3697 25.8414 10.7907 26.0359 11.1011 26.382C11.4115 26.7282 11.5859 27.1977 11.5859 27.6872ZM24.2752 27.6872C24.2752 28.0523 24.1782 28.4092 23.9963 28.7127C23.8144 29.0162 23.5559 29.2528 23.2535 29.3925C22.9511 29.5322 22.6183 29.5688 22.2972 29.4976C21.9761 29.4263 21.6812 29.2505 21.4498 28.9924C21.2183 28.7343 21.0606 28.4054 20.9968 28.0473C20.9329 27.6893 20.9657 27.3181 21.091 26.9809C21.2162 26.6436 21.4284 26.3553 21.7006 26.1525C21.9727 25.9497 22.2927 25.8414 22.6201 25.8414C23.0591 25.8414 23.4801 26.0359 23.7905 26.382C24.1009 26.7282 24.2752 27.1977 24.2752 27.6872Z" fill="#FF9839"/>
</svg>
