<svg width="180" height="50" viewBox="0 0 180 50" fill="none" xmlns="http://www.w3.org/2000/svg">
<rect x="1" y="1" width="178" height="48" rx="9" fill="#0C9100" stroke="white" stroke-width="2"/>
<path d="M38.7969 24.5859H43.3281V30.5078C42.5938 30.7474 41.901 30.9141 41.25 31.0078C40.6042 31.1068 39.9427 31.1562 39.2656 31.1562C37.5417 31.1562 36.224 30.651 35.3125 29.6406C34.4062 28.625 33.9531 27.1693 33.9531 25.2734C33.9531 23.4297 34.4792 21.9922 35.5312 20.9609C36.5885 19.9297 38.0521 19.4141 39.9219 19.4141C41.0938 19.4141 42.224 19.6484 43.3125 20.1172L42.5078 22.0547C41.6745 21.638 40.8073 21.4297 39.9062 21.4297C38.8594 21.4297 38.0208 21.7812 37.3906 22.4844C36.7604 23.1875 36.4453 24.1328 36.4453 25.3203C36.4453 26.5599 36.6979 27.5078 37.2031 28.1641C37.7135 28.8151 38.4531 29.1406 39.4219 29.1406C39.9271 29.1406 40.4401 29.0885 40.9609 28.9844V26.6016H38.7969V24.5859ZM53.0469 31L52.2188 28.2812H48.0547L47.2266 31H44.6172L48.6484 19.5312H51.6094L55.6562 31H53.0469ZM51.6406 26.25C50.875 23.7865 50.4427 22.3932 50.3438 22.0703C50.25 21.7474 50.1823 21.4922 50.1406 21.3047C49.9688 21.9714 49.4766 23.6198 48.6641 26.25H51.6406ZM52.1094 18.7578C52.1094 19.3203 51.9245 19.7734 51.5547 20.1172C51.1849 20.4609 50.7083 20.6328 50.125 20.6328C49.5417 20.6328 49.0729 20.4661 48.7188 20.1328C48.3646 19.7995 48.1875 19.3464 48.1875 18.7734C48.1875 18.2109 48.362 17.763 48.7109 17.4297C49.0651 17.0911 49.5365 16.9219 50.125 16.9219C50.6979 16.9219 51.1719 17.0938 51.5469 17.4375C51.9219 17.7812 52.1094 18.2214 52.1094 18.7578ZM50.875 18.7734C50.875 18.5391 50.8047 18.3568 50.6641 18.2266C50.5234 18.0911 50.3438 18.0234 50.125 18.0234C49.9062 18.0234 49.7266 18.0911 49.5859 18.2266C49.4453 18.3568 49.375 18.5391 49.375 18.7734C49.375 19.0078 49.4375 19.1927 49.5625 19.3281C49.6875 19.4635 49.875 19.5312 50.125 19.5312C50.3438 19.5312 50.5234 19.4635 50.6641 19.3281C50.8047 19.1927 50.875 19.0078 50.875 18.7734ZM65.6641 31H63.2422V21.5938H60.1406V19.5781H68.7656V21.5938H65.6641V31ZM70.5234 31V19.5781H72.9453V31H70.5234ZM75.8203 31V19.5781H78.2422V29H82.875V31H75.8203ZM84.8672 31V19.5781H87.2891V29H91.9219V31H84.8672ZM107.258 31H104.508L101.516 26.1875L100.492 26.9219V31H98.0703V19.5781H100.492V24.8047L101.445 23.4609L104.539 19.5781H107.227L103.242 24.6328L107.258 31ZM115.688 31L114.859 28.2812H110.695L109.867 31H107.258L111.289 19.5312H114.25L118.297 31H115.688ZM114.281 26.25C113.516 23.7865 113.083 22.3932 112.984 22.0703C112.891 21.7474 112.823 21.4922 112.781 21.3047C112.609 21.9714 112.117 23.6198 111.305 26.25H114.281ZM126.484 27.8281C126.484 28.8594 126.112 29.6719 125.367 30.2656C124.628 30.8594 123.596 31.1562 122.273 31.1562C121.055 31.1562 119.977 30.9271 119.039 30.4688V28.2188C119.81 28.5625 120.461 28.8047 120.992 28.9453C121.529 29.0859 122.018 29.1562 122.461 29.1562C122.992 29.1562 123.398 29.0547 123.68 28.8516C123.966 28.6484 124.109 28.3464 124.109 27.9453C124.109 27.7214 124.047 27.5234 123.922 27.3516C123.797 27.1745 123.612 27.0052 123.367 26.8438C123.128 26.6823 122.635 26.4245 121.891 26.0703C121.193 25.7422 120.669 25.4271 120.32 25.125C119.971 24.8229 119.693 24.4714 119.484 24.0703C119.276 23.6693 119.172 23.2005 119.172 22.6641C119.172 21.6536 119.513 20.8594 120.195 20.2812C120.883 19.7031 121.831 19.4141 123.039 19.4141C123.633 19.4141 124.198 19.4844 124.734 19.625C125.276 19.7656 125.841 19.9635 126.43 20.2188L125.648 22.1016C125.039 21.8516 124.534 21.6771 124.133 21.5781C123.737 21.4792 123.346 21.4297 122.961 21.4297C122.503 21.4297 122.151 21.5365 121.906 21.75C121.661 21.9635 121.539 22.2422 121.539 22.5859C121.539 22.7995 121.589 22.987 121.688 23.1484C121.786 23.3047 121.943 23.4583 122.156 23.6094C122.375 23.7552 122.888 24.0208 123.695 24.4062C124.763 24.9167 125.495 25.4297 125.891 25.9453C126.286 26.4557 126.484 27.0833 126.484 27.8281ZM135.297 27.8281C135.297 28.8594 134.924 29.6719 134.18 30.2656C133.44 30.8594 132.409 31.1562 131.086 31.1562C129.867 31.1562 128.789 30.9271 127.852 30.4688V28.2188C128.622 28.5625 129.273 28.8047 129.805 28.9453C130.341 29.0859 130.831 29.1562 131.273 29.1562C131.805 29.1562 132.211 29.0547 132.492 28.8516C132.779 28.6484 132.922 28.3464 132.922 27.9453C132.922 27.7214 132.859 27.5234 132.734 27.3516C132.609 27.1745 132.424 27.0052 132.18 26.8438C131.94 26.6823 131.448 26.4245 130.703 26.0703C130.005 25.7422 129.482 25.4271 129.133 25.125C128.784 24.8229 128.505 24.4714 128.297 24.0703C128.089 23.6693 127.984 23.2005 127.984 22.6641C127.984 21.6536 128.326 20.8594 129.008 20.2812C129.695 19.7031 130.643 19.4141 131.852 19.4141C132.445 19.4141 133.01 19.4844 133.547 19.625C134.089 19.7656 134.654 19.9635 135.242 20.2188L134.461 22.1016C133.852 21.8516 133.346 21.6771 132.945 21.5781C132.549 21.4792 132.159 21.4297 131.773 21.4297C131.315 21.4297 130.964 21.5365 130.719 21.75C130.474 21.9635 130.352 22.2422 130.352 22.5859C130.352 22.7995 130.401 22.987 130.5 23.1484C130.599 23.3047 130.755 23.4583 130.969 23.6094C131.188 23.7552 131.701 24.0208 132.508 24.4062C133.576 24.9167 134.307 25.4297 134.703 25.9453C135.099 26.4557 135.297 27.0833 135.297 27.8281ZM144.359 31L143.531 28.2812H139.367L138.539 31H135.93L139.961 19.5312H142.922L146.969 31H144.359ZM142.953 26.25C142.188 23.7865 141.755 22.3932 141.656 22.0703C141.562 21.7474 141.495 21.4922 141.453 21.3047C141.281 21.9714 140.789 23.6198 139.977 26.25H142.953Z" fill="white"/>
</svg>
