<svg width="40" height="41" viewBox="0 0 40 41" fill="none" xmlns="http://www.w3.org/2000/svg">
<g filter="url(#filter0_d)">
<mask id="path-1-inside-1" fill="white">
<path fill-rule="evenodd" clip-rule="evenodd" d="M4.0637 2.06374C1.84577 4.28168 1.84577 7.87766 4.0637 10.0956L12.0956 18.1275L4.06371 26.1593C1.84578 28.3772 1.84577 31.9732 4.06371 34.1912C6.28165 36.4091 9.87763 36.4091 12.0956 34.1912L20.1274 26.1593L28.1593 34.1912C30.3772 36.4091 33.9732 36.4091 36.1911 34.1912C38.4091 31.9732 38.4091 28.3772 36.1911 26.1593L28.1593 18.1275L36.1911 10.0956C38.4091 7.87765 38.4091 4.28167 36.1911 2.06373C33.9732 -0.154205 30.3772 -0.154205 28.1593 2.06373L20.1274 10.0956L12.0956 2.06374C9.87762 -0.154196 6.28164 -0.154197 4.0637 2.06374Z"/>
</mask>
<path fill-rule="evenodd" clip-rule="evenodd" d="M4.0637 2.06374C1.84577 4.28168 1.84577 7.87766 4.0637 10.0956L12.0956 18.1275L4.06371 26.1593C1.84578 28.3772 1.84577 31.9732 4.06371 34.1912C6.28165 36.4091 9.87763 36.4091 12.0956 34.1912L20.1274 26.1593L28.1593 34.1912C30.3772 36.4091 33.9732 36.4091 36.1911 34.1912C38.4091 31.9732 38.4091 28.3772 36.1911 26.1593L28.1593 18.1275L36.1911 10.0956C38.4091 7.87765 38.4091 4.28167 36.1911 2.06373C33.9732 -0.154205 30.3772 -0.154205 28.1593 2.06373L20.1274 10.0956L12.0956 2.06374C9.87762 -0.154196 6.28164 -0.154197 4.0637 2.06374Z" fill="#FF9839"/>
<path d="M4.0637 10.0956L2.64949 11.5098L4.0637 10.0956ZM12.0956 18.1275L13.5098 19.5417L14.924 18.1275L13.5098 16.7132L12.0956 18.1275ZM4.06371 26.1593L5.47793 27.5735L4.06371 26.1593ZM20.1274 26.1593L21.5416 24.7451L20.1274 23.3309L18.7132 24.7451L20.1274 26.1593ZM28.1593 34.1912L29.5735 32.7769L28.1593 34.1912ZM36.1911 26.1593L34.7769 27.5735L36.1911 26.1593ZM28.1593 18.1275L26.7451 16.7132L25.3308 18.1275L26.7451 19.5417L28.1593 18.1275ZM36.1911 10.0956L37.6053 11.5098L36.1911 10.0956ZM20.1274 10.0956L18.7132 11.5098L20.1274 12.924L21.5416 11.5098L20.1274 10.0956ZM5.47792 8.68138C4.04103 7.24449 4.04103 4.91484 5.47792 3.47795L2.64949 0.649525C-0.349496 3.64851 -0.349496 8.51082 2.64949 11.5098L5.47792 8.68138ZM13.5098 16.7132L5.47792 8.68138L2.64949 11.5098L10.6813 19.5417L13.5098 16.7132ZM5.47793 27.5735L13.5098 19.5417L10.6813 16.7132L2.6495 24.7451L5.47793 27.5735ZM5.47792 32.7769C4.04104 31.3401 4.04104 29.0104 5.47793 27.5735L2.6495 24.7451C-0.349485 27.7441 -0.349488 32.6064 2.6495 35.6054L5.47792 32.7769ZM10.6814 32.7769C9.24447 34.2138 6.91481 34.2138 5.47792 32.7769L2.6495 35.6054C5.64848 38.6044 10.5108 38.6044 13.5098 35.6054L10.6814 32.7769ZM18.7132 24.7451L10.6814 32.7769L13.5098 35.6054L21.5416 27.5735L18.7132 24.7451ZM29.5735 32.7769L21.5416 24.7451L18.7132 27.5735L26.7451 35.6054L29.5735 32.7769ZM34.7769 32.7769C33.34 34.2138 31.0104 34.2138 29.5735 32.7769L26.7451 35.6054C29.744 38.6044 34.6064 38.6044 37.6053 35.6054L34.7769 32.7769ZM34.7769 27.5735C36.2138 29.0104 36.2138 31.3401 34.7769 32.7769L37.6053 35.6054C40.6043 32.6064 40.6043 27.7441 37.6053 24.7451L34.7769 27.5735ZM26.7451 19.5417L34.7769 27.5735L37.6053 24.7451L29.5735 16.7132L26.7451 19.5417ZM34.7769 8.68138L26.7451 16.7132L29.5735 19.5417L37.6053 11.5098L34.7769 8.68138ZM34.7769 3.47794C36.2138 4.91483 36.2138 7.24448 34.7769 8.68138L37.6053 11.5098C40.6043 8.51082 40.6043 3.6485 37.6053 0.649517L34.7769 3.47794ZM29.5735 3.47794C31.0104 2.04106 33.34 2.04106 34.7769 3.47794L37.6053 0.649517C34.6064 -2.34947 29.744 -2.34947 26.7451 0.649517L29.5735 3.47794ZM21.5416 11.5098L29.5735 3.47794L26.7451 0.649517L18.7132 8.68138L21.5416 11.5098ZM10.6813 3.47795L18.7132 11.5098L21.5416 8.68138L13.5098 0.649527L10.6813 3.47795ZM5.47792 3.47795C6.9148 2.04107 9.24446 2.04107 10.6813 3.47795L13.5098 0.649527C10.5108 -2.34946 5.64847 -2.34946 2.64949 0.649525L5.47792 3.47795Z" fill="black" mask="url(#path-1-inside-1)"/>
</g>
<defs>
<filter id="filter0_d" x="0.400238" y="0.400269" width="39.4543" height="40.4543" filterUnits="userSpaceOnUse" color-interpolation-filters="sRGB">
<feFlood flood-opacity="0" result="BackgroundImageFix"/>
<feColorMatrix in="SourceAlpha" type="matrix" values="0 0 0 0 0 0 0 0 0 0 0 0 0 0 0 0 0 0 127 0"/>
<feOffset dy="3"/>
<feGaussianBlur stdDeviation="1"/>
<feColorMatrix type="matrix" values="0 0 0 0 0 0 0 0 0 0 0 0 0 0 0 0 0 0 0.33 0"/>
<feBlend mode="normal" in2="BackgroundImageFix" result="effect1_dropShadow"/>
<feBlend mode="normal" in="SourceGraphic" in2="effect1_dropShadow" result="shape"/>
</filter>
</defs>
</svg>
