<svg width="69" height="70" viewBox="0 0 69 70" fill="none" xmlns="http://www.w3.org/2000/svg">
<g filter="url(#filter0_d)">
<mask id="path-1-inside-1" fill="white">
<path fill-rule="evenodd" clip-rule="evenodd" d="M18.0637 16.0637C15.8458 18.2816 15.8458 21.8776 18.0637 24.0956L26.0956 32.1274L18.0637 40.1593C15.8458 42.3772 15.8458 45.9732 18.0637 48.1911C20.2816 50.4091 23.8776 50.4091 26.0956 48.1911L34.1274 40.1593L42.1593 48.1911C44.3772 50.4091 47.9732 50.4091 50.1911 48.1911C52.4091 45.9732 52.4091 42.3772 50.1911 40.1593L42.1593 32.1274L50.1911 24.0956C52.4091 21.8776 52.4091 18.2816 50.1911 16.0637C47.9732 13.8458 44.3772 13.8458 42.1593 16.0637L34.1274 24.0956L26.0956 16.0637C23.8776 13.8458 20.2816 13.8458 18.0637 16.0637Z"/>
</mask>
<path fill-rule="evenodd" clip-rule="evenodd" d="M18.0637 16.0637C15.8458 18.2816 15.8458 21.8776 18.0637 24.0956L26.0956 32.1274L18.0637 40.1593C15.8458 42.3772 15.8458 45.9732 18.0637 48.1911C20.2816 50.4091 23.8776 50.4091 26.0956 48.1911L34.1274 40.1593L42.1593 48.1911C44.3772 50.4091 47.9732 50.4091 50.1911 48.1911C52.4091 45.9732 52.4091 42.3772 50.1911 40.1593L42.1593 32.1274L50.1911 24.0956C52.4091 21.8776 52.4091 18.2816 50.1911 16.0637C47.9732 13.8458 44.3772 13.8458 42.1593 16.0637L34.1274 24.0956L26.0956 16.0637C23.8776 13.8458 20.2816 13.8458 18.0637 16.0637Z" fill="#FF9839"/>
<path d="M26.0956 32.1274L27.5098 33.5416L28.924 32.1274L27.5098 30.7132L26.0956 32.1274ZM34.1274 40.1593L35.5416 38.7451L34.1274 37.3308L32.7132 38.7451L34.1274 40.1593ZM42.1593 32.1274L40.7451 30.7132L39.3308 32.1274L40.7451 33.5416L42.1593 32.1274ZM34.1274 24.0956L32.7132 25.5098L34.1274 26.924L35.5416 25.5098L34.1274 24.0956ZM26.0956 16.0637L24.6813 17.4779L26.0956 16.0637ZM19.4779 22.6814C18.041 21.2445 18.041 18.9148 19.4779 17.4779L16.6495 14.6495C13.6505 17.6485 13.6505 22.5108 16.6495 25.5098L19.4779 22.6814ZM27.5098 30.7132L19.4779 22.6814L16.6495 25.5098L24.6813 33.5416L27.5098 30.7132ZM19.4779 41.5735L27.5098 33.5416L24.6813 30.7132L16.6495 38.7451L19.4779 41.5735ZM19.4779 46.7769C18.041 45.34 18.041 43.0104 19.4779 41.5735L16.6495 38.7451C13.6505 41.744 13.6505 46.6064 16.6495 49.6053L19.4779 46.7769ZM24.6814 46.7769C23.2445 48.2138 20.9148 48.2138 19.4779 46.7769L16.6495 49.6053C19.6485 52.6043 24.5108 52.6043 27.5098 49.6053L24.6814 46.7769ZM32.7132 38.7451L24.6814 46.7769L27.5098 49.6053L35.5416 41.5735L32.7132 38.7451ZM43.5735 46.7769L35.5416 38.7451L32.7132 41.5735L40.7451 49.6053L43.5735 46.7769ZM48.7769 46.7769C47.34 48.2138 45.0104 48.2138 43.5735 46.7769L40.7451 49.6053C43.744 52.6043 48.6064 52.6043 51.6053 49.6053L48.7769 46.7769ZM48.7769 41.5735C50.2138 43.0104 50.2138 45.34 48.7769 46.7769L51.6053 49.6053C54.6043 46.6064 54.6043 41.744 51.6053 38.7451L48.7769 41.5735ZM40.7451 33.5416L48.7769 41.5735L51.6053 38.7451L43.5735 30.7132L40.7451 33.5416ZM48.7769 22.6813L40.7451 30.7132L43.5735 33.5416L51.6053 25.5098L48.7769 22.6813ZM48.7769 17.4779C50.2138 18.9148 50.2138 21.2445 48.7769 22.6813L51.6053 25.5098C54.6043 22.5108 54.6043 17.6485 51.6053 14.6495L48.7769 17.4779ZM43.5735 17.4779C45.0104 16.041 47.34 16.041 48.7769 17.4779L51.6053 14.6495C48.6064 11.6505 43.744 11.6505 40.7451 14.6495L43.5735 17.4779ZM35.5416 25.5098L43.5735 17.4779L40.7451 14.6495L32.7132 22.6814L35.5416 25.5098ZM24.6813 17.4779L32.7132 25.5098L35.5416 22.6814L27.5098 14.6495L24.6813 17.4779ZM19.4779 17.4779C20.9148 16.041 23.2445 16.041 24.6813 17.4779L27.5098 14.6495C24.5108 11.6505 19.6485 11.6505 16.6495 14.6495L19.4779 17.4779Z" fill="black" mask="url(#path-1-inside-1)"/>
</g>
<defs>
<filter id="filter0_d" x="0" y="0" width="68.2548" height="69.2548" filterUnits="userSpaceOnUse" color-interpolation-filters="sRGB">
<feFlood flood-opacity="0" result="BackgroundImageFix"/>
<feColorMatrix in="SourceAlpha" type="matrix" values="0 0 0 0 0 0 0 0 0 0 0 0 0 0 0 0 0 0 127 0"/>
<feOffset dy="3"/>
<feGaussianBlur stdDeviation="1"/>
<feColorMatrix type="matrix" values="0 0 0 0 0 0 0 0 0 0 0 0 0 0 0 0 0 0 0.33 0"/>
<feBlend mode="normal" in2="BackgroundImageFix" result="effect1_dropShadow"/>
<feBlend mode="normal" in="SourceGraphic" in2="effect1_dropShadow" result="shape"/>
</filter>
</defs>
</svg>
