<svg width="32" height="32" viewBox="0 0 32 32" fill="none" xmlns="http://www.w3.org/2000/svg">
<path d="M29.7706 10.176C29.3333 8.576 26.384 0 16 0C5.61599 0 2.66666 8.576 2.22933 10.176C1.60756 10.2794 1.04251 10.5996 0.634412 11.08C0.226313 11.5603 0.00155107 12.1697 0 12.8V19.7333C0 20.4406 0.280951 21.1189 0.781048 21.619C1.28114 22.119 1.95942 22.4 2.66666 22.4H6.15466C7.11607 24.1727 8.53829 25.653 10.2712 26.6845C12.0041 27.7161 13.9833 28.2606 16 28.2606C18.0166 28.2606 19.9959 27.7161 21.7288 26.6845C23.4617 25.653 24.8839 24.1727 25.8453 22.4H27.3226C26.3253 24.8373 23.3866 29.8667 16 29.8667C15.7171 29.8667 15.4458 29.979 15.2457 30.1791C15.0457 30.3791 14.9333 30.6504 14.9333 30.9333C14.9333 31.2162 15.0457 31.4875 15.2457 31.6876C15.4458 31.8876 15.7171 32 16 32C25.4986 32 28.7626 24.8213 29.6 22.4C30.26 22.3337 30.8717 22.0237 31.3155 21.5306C31.7592 21.0375 32.0033 20.3967 32 19.7333V12.8C31.9984 12.1697 31.7737 11.5603 31.3656 11.08C30.9575 10.5996 30.3924 10.2794 29.7706 10.176V10.176ZM5.26933 20.2667H2.66666C2.52522 20.2667 2.38956 20.2105 2.28954 20.1105C2.18952 20.0104 2.13333 19.8748 2.13333 19.7333V12.8C2.13333 12.6586 2.18952 12.5229 2.28954 12.4229C2.38956 12.3229 2.52522 12.2667 2.66666 12.2667H5.26933C4.9602 13.3053 4.80214 14.383 4.79999 15.4667V17.0667C4.80214 18.1503 4.9602 19.228 5.26933 20.2667V20.2667ZM25.0666 17.0667C25.0666 19.4713 24.1114 21.7774 22.4111 23.4778C20.7108 25.1781 18.4046 26.1333 16 26.1333C13.5954 26.1333 11.2892 25.1781 9.58889 23.4778C7.88856 21.7774 6.93333 19.4713 6.93333 17.0667V15.4667C6.93333 13.062 7.88856 10.7559 9.58889 9.05557C11.2892 7.35524 13.5954 6.4 16 6.4C18.4046 6.4 20.7108 7.35524 22.4111 9.05557C24.1114 10.7559 25.0666 13.062 25.0666 15.4667V17.0667ZM25.8666 10.1707C24.9121 8.38555 23.4916 6.8925 21.7562 5.85029C20.0208 4.80809 18.0354 4.2557 16.0111 4.25187C13.9869 4.24804 11.9994 4.79291 10.26 5.82854C8.52073 6.86417 7.0946 8.35184 6.13333 10.1333H4.47466C5.22666 8 7.99999 2.13333 16 2.13333C24 2.13333 26.7946 8 27.5306 10.1333H26.1333C26.0432 10.1349 25.9537 10.1474 25.8666 10.1707V10.1707ZM29.8666 19.7333C29.8666 19.8748 29.8104 20.0104 29.7104 20.1105C29.6104 20.2105 29.4748 20.2667 29.3333 20.2667H26.7306C27.0398 19.228 27.1978 18.1503 27.2 17.0667V15.4667C27.1978 14.383 27.0398 13.3053 26.7306 12.2667H29.3333C29.4748 12.2667 29.6104 12.3229 29.7104 12.4229C29.8104 12.5229 29.8666 12.6586 29.8666 12.8V19.7333Z" fill="#FF9839"/>
</svg>
