<svg width="180" height="50" viewBox="0 0 180 50" fill="none" xmlns="http://www.w3.org/2000/svg">
<rect x="1" y="1" width="178" height="48" rx="9" fill="#0C9100" stroke="white" stroke-width="2"/>
<path d="M17.1484 24.5859H21.6797V30.5078C20.9453 30.7474 20.2526 30.9141 19.6016 31.0078C18.9557 31.1068 18.2943 31.1562 17.6172 31.1562C15.8932 31.1562 14.5755 30.651 13.6641 29.6406C12.7578 28.625 12.3047 27.1693 12.3047 25.2734C12.3047 23.4297 12.8307 21.9922 13.8828 20.9609C14.9401 19.9297 16.4036 19.4141 18.2734 19.4141C19.4453 19.4141 20.5755 19.6484 21.6641 20.1172L20.8594 22.0547C20.026 21.638 19.1589 21.4297 18.2578 21.4297C17.2109 21.4297 16.3724 21.7812 15.7422 22.4844C15.112 23.1875 14.7969 24.1328 14.7969 25.3203C14.7969 26.5599 15.0495 27.5078 15.5547 28.1641C16.0651 28.8151 16.8047 29.1406 17.7734 29.1406C18.2786 29.1406 18.7917 29.0885 19.3125 28.9844V26.6016H17.1484V24.5859ZM31.3984 31L30.5703 28.2812H26.4062L25.5781 31H22.9688L27 19.5312H29.9609L34.0078 31H31.3984ZM29.9922 26.25C29.2266 23.7865 28.7943 22.3932 28.6953 22.0703C28.6016 21.7474 28.5339 21.4922 28.4922 21.3047C28.3203 21.9714 27.8281 23.6198 27.0156 26.25H29.9922ZM30.4609 18.7578C30.4609 19.3203 30.276 19.7734 29.9062 20.1172C29.5365 20.4609 29.0599 20.6328 28.4766 20.6328C27.8932 20.6328 27.4245 20.4661 27.0703 20.1328C26.7161 19.7995 26.5391 19.3464 26.5391 18.7734C26.5391 18.2109 26.7135 17.763 27.0625 17.4297C27.4167 17.0911 27.888 16.9219 28.4766 16.9219C29.0495 16.9219 29.5234 17.0938 29.8984 17.4375C30.2734 17.7812 30.4609 18.2214 30.4609 18.7578ZM29.2266 18.7734C29.2266 18.5391 29.1562 18.3568 29.0156 18.2266C28.875 18.0911 28.6953 18.0234 28.4766 18.0234C28.2578 18.0234 28.0781 18.0911 27.9375 18.2266C27.7969 18.3568 27.7266 18.5391 27.7266 18.7734C27.7266 19.0078 27.7891 19.1927 27.9141 19.3281C28.0391 19.4635 28.2266 19.5312 28.4766 19.5312C28.6953 19.5312 28.875 19.4635 29.0156 19.3281C29.1562 19.1927 29.2266 19.0078 29.2266 18.7734ZM44.0156 31H41.5938V21.5938H38.4922V19.5781H47.1172V21.5938H44.0156V31ZM48.875 31V19.5781H51.2969V31H48.875ZM54.1719 31V19.5781H56.5938V29H61.2266V31H54.1719ZM63.2188 31V19.5781H65.6406V29H70.2734V31H63.2188ZM85.6094 31H82.8594L79.8672 26.1875L78.8438 26.9219V31H76.4219V19.5781H78.8438V24.8047L79.7969 23.4609L82.8906 19.5781H85.5781L81.5938 24.6328L85.6094 31ZM96.3438 19.5781V26.9688C96.3438 27.8125 96.1536 28.5521 95.7734 29.1875C95.3984 29.8229 94.8542 30.3099 94.1406 30.6484C93.4271 30.987 92.5833 31.1562 91.6094 31.1562C90.1406 31.1562 89 30.7812 88.1875 30.0312C87.375 29.276 86.9688 28.2448 86.9688 26.9375V19.5781H89.3828V26.5703C89.3828 27.4505 89.5599 28.0964 89.9141 28.5078C90.2682 28.9193 90.8542 29.125 91.6719 29.125C92.4635 29.125 93.0365 28.9193 93.3906 28.5078C93.75 28.0911 93.9297 27.4401 93.9297 26.5547V19.5781H96.3438ZM109.273 31H106.195L101.227 22.3594H101.156C101.255 23.8854 101.305 24.974 101.305 25.625V31H99.1406V19.5781H102.195L107.156 28.1328H107.211C107.133 26.6484 107.094 25.599 107.094 24.9844V19.5781H109.273V31ZM121.633 25.1797C121.633 27.0599 121.096 28.5 120.023 29.5C118.956 30.5 117.411 31 115.391 31H112.156V19.5781H115.742C117.607 19.5781 119.055 20.0703 120.086 21.0547C121.117 22.0391 121.633 23.4141 121.633 25.1797ZM119.117 25.2422C119.117 22.7891 118.034 21.5625 115.867 21.5625H114.578V29H115.617C117.951 29 119.117 27.7474 119.117 25.2422ZM130.516 19.5781H132.961L129.078 31H126.438L122.562 19.5781H125.008L127.156 26.375C127.276 26.776 127.398 27.2448 127.523 27.7812C127.654 28.3125 127.734 28.6823 127.766 28.8906C127.823 28.4115 128.018 27.5729 128.352 26.375L130.516 19.5781ZM141.398 31L140.57 28.2812H136.406L135.578 31H132.969L137 19.5312H139.961L144.008 31H141.398ZM139.992 26.25C139.227 23.7865 138.794 22.3932 138.695 22.0703C138.602 21.7474 138.534 21.4922 138.492 21.3047C138.32 21.9714 137.828 23.6198 137.016 26.25H139.992ZM149.789 24.5859H154.32V30.5078C153.586 30.7474 152.893 30.9141 152.242 31.0078C151.596 31.1068 150.935 31.1562 150.258 31.1562C148.534 31.1562 147.216 30.651 146.305 29.6406C145.398 28.625 144.945 27.1693 144.945 25.2734C144.945 23.4297 145.471 21.9922 146.523 20.9609C147.581 19.9297 149.044 19.4141 150.914 19.4141C152.086 19.4141 153.216 19.6484 154.305 20.1172L153.5 22.0547C152.667 21.638 151.799 21.4297 150.898 21.4297C149.852 21.4297 149.013 21.7812 148.383 22.4844C147.753 23.1875 147.438 24.1328 147.438 25.3203C147.438 26.5599 147.69 27.5078 148.195 28.1641C148.706 28.8151 149.445 29.1406 150.414 29.1406C150.919 29.1406 151.432 29.0885 151.953 28.9844V26.6016H149.789V24.5859ZM167.18 31H164.102L159.133 22.3594H159.062C159.161 23.8854 159.211 24.974 159.211 25.625V31H157.047V19.5781H160.102L165.062 28.1328H165.117C165.039 26.6484 165 25.599 165 24.9844V19.5781H167.18V31Z" fill="white"/>
</svg>
