<svg width="123" height="121" viewBox="0 0 123 121" fill="none" xmlns="http://www.w3.org/2000/svg">
<g filter="url(#filter0_d)">
<rect x="2" width="116" height="116" rx="10" fill="white"/>
</g>
<path d="M92.9311 100.818H27.0631C26.0217 100.819 24.9904 100.615 24.0281 100.217C23.0658 99.8188 22.1913 99.2351 21.4547 98.4991C20.7181 97.763 20.1337 96.889 19.735 95.927C19.3363 94.9649 19.1311 93.9338 19.1311 92.8924V48.1504C19.1316 46.9882 19.4222 45.8445 19.9764 44.823C20.5307 43.8014 21.3311 42.9344 22.3051 42.3004L54.4771 21.3963C56.2414 20.2491 58.3027 19.643 60.4072 19.6526C62.5117 19.6622 64.5674 20.2871 66.3211 21.4503L97.7431 42.2944C98.7024 42.9309 99.4894 43.7949 100.034 44.8093C100.578 45.8237 100.863 46.9571 100.863 48.1084V92.8924C100.863 93.9338 100.658 94.9649 100.259 95.927C99.8605 96.889 99.2762 97.763 98.5395 98.4991C97.8029 99.2351 96.9284 99.8188 95.9661 100.217C95.0038 100.615 93.9725 100.819 92.9311 100.818V100.818Z" fill="#67BAEB"/>
<path d="M24.8191 92.8917V48.1496C24.8196 46.9874 25.1102 45.8438 25.6644 44.8222C26.2187 43.8007 27.0191 42.9337 27.9931 42.2996L60.1651 21.3956C61.1003 20.7868 62.1246 20.3273 63.2011 20.0336C61.7331 19.6332 60.197 19.5476 58.6936 19.7823C57.1901 20.0171 55.7532 20.5668 54.4771 21.3956L22.3051 42.2996C21.3311 42.9337 20.5307 43.8007 19.9764 44.8222C19.4222 45.8438 19.1316 46.9874 19.1311 48.1496V92.8917C19.1311 93.933 19.3363 94.9642 19.735 95.9262C20.1337 96.8882 20.718 97.7623 21.4547 98.4983C22.1913 99.2344 23.0658 99.8181 24.0281 100.216C24.9904 100.614 26.0217 100.818 27.0631 100.818H32.7451C31.704 100.818 30.673 100.614 29.711 100.216C28.749 99.8179 27.875 99.2341 27.1388 98.498C26.4027 97.7618 25.8189 96.8878 25.4208 95.9258C25.0228 94.9638 24.8183 93.9328 24.8191 92.8917V92.8917Z" fill="#49ADE6"/>
<path d="M94.2151 94.8236H25.7791C24.4843 94.8249 23.2076 94.5208 22.0524 93.9359C20.8973 93.3511 19.8964 92.502 19.1311 91.4576V92.8916C19.1311 93.933 19.3363 94.9642 19.735 95.9262C20.1337 96.8882 20.7181 97.7622 21.4547 98.4983C22.1913 99.2344 23.0658 99.8181 24.0281 100.216C24.9904 100.614 26.0217 100.818 27.0631 100.818H92.9311C93.9725 100.818 95.0038 100.614 95.9661 100.216C96.9284 99.8181 97.8029 99.2344 98.5395 98.4983C99.2762 97.7622 99.8605 96.8882 100.259 95.9262C100.658 94.9642 100.863 93.933 100.863 92.8916V91.4576C100.098 92.502 99.0969 93.3511 97.9418 93.9359C96.7867 94.5208 95.5099 94.8249 94.2151 94.8236V94.8236Z" fill="#49ADE6"/>
<path d="M100.127 44.9883C99.5815 43.8979 98.7603 42.9692 97.7449 42.2943L66.323 21.4503C64.5692 20.2871 62.5135 19.6622 60.409 19.6526C58.3046 19.643 56.2433 20.2491 54.479 21.3963L22.307 42.3003C21.4374 42.8675 20.7055 43.6219 20.165 44.5083L20.729 44.9883L54.317 72.7923C55.9195 74.1188 57.9319 74.8496 60.0123 74.8606C62.0926 74.8715 64.1125 74.1619 65.729 72.8523L98.8609 45.9903L100.127 44.9883Z" fill="#46A1F8"/>
<path d="M97.7449 42.2944L96.6949 41.5984L95.9209 42.3124L65.699 70.8784C62.399 73.9923 57.617 73.9623 54.353 70.8123L23.819 41.3284H23.813L22.307 42.3004C21.4374 42.8675 20.7055 43.6219 20.165 44.5084L20.729 44.9884L54.317 72.7923C55.9195 74.1189 57.9319 74.8497 60.0123 74.8606C62.0926 74.8716 64.1125 74.1619 65.729 72.8523L98.8609 45.9904L100.127 44.9884C99.5815 43.898 98.7603 42.9693 97.7449 42.2944V42.2944Z" fill="#2F8AE0"/>
<path d="M38.4528 31.8124C39.4908 42.0004 48.0947 49.9504 58.5587 49.9504C69.7187 49.9504 78.7667 40.8964 78.7667 29.7364V29.7064L66.3227 21.4503C64.569 20.2871 62.5133 19.6622 60.4088 19.6526C58.3043 19.643 56.243 20.2491 54.4787 21.3963L38.4528 31.8124Z" fill="#2F8AE0"/>
<path d="M58.5578 45.8337C67.4485 45.8337 74.6558 38.6264 74.6558 29.7357C74.6558 20.845 67.4485 13.6377 58.5578 13.6377C49.6671 13.6377 42.4597 20.845 42.4597 29.7357C42.4597 38.6264 49.6671 45.8337 58.5578 45.8337Z" fill="#F8881B"/>
<path d="M58.5605 43.9562C66.414 43.9562 72.7805 37.5897 72.7805 29.7362C72.7805 21.8827 66.414 15.5162 58.5605 15.5162C50.707 15.5162 44.3405 21.8827 44.3405 29.7362C44.3405 37.5897 50.707 43.9562 58.5605 43.9562Z" fill="#F08000"/>
<path d="M58.5557 42.3543C65.5244 42.3543 71.1737 36.705 71.1737 29.7363C71.1737 22.7676 65.5244 17.1183 58.5557 17.1183C51.587 17.1183 45.9377 22.7676 45.9377 29.7363C45.9377 36.705 51.587 42.3543 58.5557 42.3543Z" fill="#F4C23F"/>
<path d="M70.0081 27.0951C70.3081 27.0951 70.602 27.0831 70.896 27.0591C70.3084 24.3562 68.8494 21.9211 66.7431 20.1282C64.6369 18.3352 62.0001 17.2837 59.238 17.1351C59.664 22.7091 64.326 27.0951 70.0081 27.0951Z" fill="#FAD564"/>
<path d="M58.0523 41.5558C57.5605 41.5558 57.089 41.3605 56.7413 41.0128C56.3936 40.6651 56.1983 40.1935 56.1983 39.7018V37.4578H52.7482C52.2549 37.4578 51.7818 37.2619 51.433 36.913C51.0842 36.5642 50.8882 36.0911 50.8882 35.5978C50.8882 35.1045 51.0842 34.6314 51.433 34.2826C51.7818 33.9338 52.2549 33.7378 52.7482 33.7378H60.5363C60.7909 33.7378 61.035 33.6367 61.2151 33.4566C61.3951 33.2766 61.4963 33.0324 61.4963 32.7778C61.4963 32.5232 61.3951 32.279 61.2151 32.099C61.035 31.919 60.7909 31.8178 60.5363 31.8178H55.5683C54.3286 31.8178 53.1398 31.3254 52.2632 30.4488C51.3867 29.5723 50.8942 28.3834 50.8942 27.1438C50.8942 25.9042 51.3867 24.7153 52.2632 23.8388C53.1398 22.9622 54.3286 22.4698 55.5683 22.4698H56.1983V20.9878C56.2252 20.5135 56.4326 20.0676 56.7779 19.7414C57.1232 19.4151 57.5802 19.2334 58.0553 19.2334C58.5303 19.2334 58.9873 19.4151 59.3326 19.7414C59.6779 20.0676 59.8853 20.5135 59.9123 20.9878V22.4698H63.3563C63.8496 22.4698 64.3227 22.6658 64.6715 23.0146C65.0203 23.3634 65.2163 23.8365 65.2163 24.3298C65.2163 24.8231 65.0203 25.2962 64.6715 25.645C64.3227 25.9938 63.8496 26.1898 63.3563 26.1898H55.5683C55.4362 26.1793 55.3034 26.1963 55.1783 26.2397C55.0531 26.283 54.9383 26.3518 54.841 26.4417C54.7437 26.5316 54.666 26.6406 54.6129 26.762C54.5598 26.8833 54.5324 27.0143 54.5324 27.1468C54.5324 27.2793 54.5598 27.4103 54.6129 27.5316C54.666 27.653 54.7437 27.762 54.841 27.8519C54.9383 27.9418 55.0531 28.0106 55.1783 28.0539C55.3034 28.0973 55.4362 28.1143 55.5683 28.1038H60.5363C61.7477 28.1472 62.895 28.659 63.7367 29.5313C64.5784 30.4037 65.0487 31.5686 65.0487 32.7808C65.0487 33.993 64.5784 35.1579 63.7367 36.0303C62.895 36.9027 61.7477 37.4144 60.5363 37.4578H59.9123V39.7018C59.9123 39.9458 59.8641 40.1874 59.7706 40.4127C59.677 40.638 59.5399 40.8427 59.3671 41.0149C59.1943 41.1872 58.9892 41.3236 58.7636 41.4164C58.538 41.5092 58.2962 41.5566 58.0523 41.5558V41.5558Z" fill="#F4A93F"/>
<path d="M60.8761 27.8394H55.9081C55.7371 27.8394 55.5678 27.8057 55.4098 27.7403C55.2519 27.6748 55.1083 27.5789 54.9874 27.458C54.8665 27.3371 54.7706 27.1936 54.7052 27.0356C54.6398 26.8777 54.6061 26.7084 54.6061 26.5374C54.6061 26.3664 54.6398 26.1971 54.7052 26.0391C54.7706 25.8812 54.8665 25.7376 54.9874 25.6167C55.1083 25.4958 55.2519 25.3999 55.4098 25.3345C55.5678 25.2691 55.7371 25.2354 55.9081 25.2354H63.7021C64.0874 25.2111 64.449 25.041 64.7133 24.7595C64.9776 24.4781 65.1247 24.1065 65.1247 23.7204C65.1247 23.3343 64.9776 22.9627 64.7133 22.6813C64.449 22.3998 64.0874 22.2296 63.7021 22.2054H59.9101V20.3814C59.9101 19.9804 59.7508 19.5958 59.4672 19.3122C59.1837 19.0287 58.7991 18.8694 58.3981 18.8694C57.9971 18.8694 57.6125 19.0287 57.329 19.3122C57.0454 19.5958 56.8861 19.9804 56.8861 20.3814V22.2054H55.9081C54.7879 22.2471 53.7274 22.7214 52.9496 23.5287C52.1718 24.336 51.7373 25.4134 51.7373 26.5344C51.7373 27.6554 52.1718 28.7328 52.9496 29.54C53.7274 30.3473 54.7879 30.8217 55.9081 30.8634H60.8761C61.0549 30.8513 61.2343 30.876 61.4032 30.9361C61.572 30.9962 61.7267 31.0903 61.8577 31.2127C61.9886 31.3351 62.093 31.483 62.1644 31.6474C62.2358 31.8118 62.2726 31.9892 62.2726 32.1684C62.2726 32.3476 62.2358 32.5249 62.1644 32.6893C62.093 32.8537 61.9886 33.0017 61.8577 33.1241C61.7267 33.2464 61.572 33.3406 61.4032 33.4007C61.2343 33.4608 61.0549 33.4855 60.8761 33.4734H53.0941C52.7088 33.4977 52.3472 33.6678 52.0829 33.9493C51.8186 34.2307 51.6715 34.6023 51.6715 34.9884C51.6715 35.3745 51.8186 35.7461 52.0829 36.0275C52.3472 36.309 52.7088 36.4791 53.0941 36.5034H56.8861V39.0894C56.8861 39.4904 57.0454 39.875 57.329 40.1585C57.6125 40.4421 57.9971 40.6014 58.3981 40.6014C58.7991 40.6014 59.1837 40.4421 59.4672 40.1585C59.7508 39.875 59.9101 39.4904 59.9101 39.0894V36.5034H60.8761C62.025 36.5034 63.1269 36.047 63.9393 35.2346C64.7517 34.4222 65.2081 33.3203 65.2081 32.1714C65.2081 31.0225 64.7517 29.9206 63.9393 29.1082C63.1269 28.2958 62.025 27.8394 60.8761 27.8394V27.8394Z" fill="#CF6B00"/>
<path d="M96.1895 59.0587H96.1835C93.6021 59.0587 91.5095 61.1513 91.5095 63.7327V76.0387C91.5095 78.62 93.6021 80.7127 96.1835 80.7127H96.1895C98.7709 80.7127 100.864 78.62 100.864 76.0387V63.7327C100.864 61.1513 98.7709 59.0587 96.1895 59.0587Z" fill="#83D0FB"/>
<defs>
<filter id="filter0_d" x="2" y="0" width="121" height="121" filterUnits="userSpaceOnUse" color-interpolation-filters="sRGB">
<feFlood flood-opacity="0" result="BackgroundImageFix"/>
<feColorMatrix in="SourceAlpha" type="matrix" values="0 0 0 0 0 0 0 0 0 0 0 0 0 0 0 0 0 0 127 0"/>
<feOffset dx="3" dy="3"/>
<feGaussianBlur stdDeviation="1"/>
<feColorMatrix type="matrix" values="0 0 0 0 0 0 0 0 0 0 0 0 0 0 0 0 0 0 0.5 0"/>
<feBlend mode="normal" in2="BackgroundImageFix" result="effect1_dropShadow"/>
<feBlend mode="normal" in="SourceGraphic" in2="effect1_dropShadow" result="shape"/>
</filter>
</defs>
</svg>
