<svg width="121" height="121" viewBox="0 0 121 121" fill="none" xmlns="http://www.w3.org/2000/svg">
<g filter="url(#filter0_d)">
<rect width="116" height="116" rx="10" fill="white"/>
</g>
<path d="M82.1875 52.6562H77.4062C77.125 52.6562 76.8437 52.9375 76.7031 53.2187L74.7343 65.5938C74.7343 65.875 74.875 66.0156 75.1562 66.0156H77.6875C77.9687 66.0156 78.1093 65.875 78.1093 65.5938L78.6718 62.0781C78.6718 61.7969 78.9531 61.5156 79.375 61.5156H80.9218C84.1562 61.5156 85.9843 59.9688 86.4062 56.875C86.6875 55.6094 86.4062 54.4844 85.8437 53.7812C85 53.0781 83.7343 52.6562 82.1875 52.6562ZM82.75 57.2969C82.4687 58.9844 81.2031 58.9844 79.9375 58.9844H79.0937L79.6562 55.75C79.6562 55.6094 79.7968 55.4688 80.0781 55.4688H80.3593C81.2031 55.4688 82.0468 55.4687 82.4687 56.0312C82.75 56.1719 82.75 56.5937 82.75 57.2969Z" fill="#139AD6"/>
<path d="M47.7343 52.6562H42.9531C42.6718 52.6562 42.3906 52.9375 42.25 53.2187L40.2812 65.5938C40.2812 65.875 40.4218 66.0156 40.7031 66.0156H42.9531C43.2343 66.0156 43.5156 65.7344 43.6562 65.4531L44.2187 62.0781C44.2187 61.7969 44.5 61.5156 44.9218 61.5156H46.4687C49.7031 61.5156 51.5312 59.9688 51.9531 56.875C52.2343 55.6094 51.9531 54.4844 51.3906 53.7812C50.5468 53.0781 49.4218 52.6562 47.7343 52.6562ZM48.2968 57.2969C48.0156 58.9844 46.75 58.9844 45.4843 58.9844H44.7812L45.3437 55.75C45.3437 55.6094 45.4843 55.4688 45.7656 55.4688H46.0468C46.8906 55.4688 47.7343 55.4687 48.1562 56.0312C48.2968 56.1719 48.4375 56.5937 48.2968 57.2969Z" fill="#263B80"/>
<path d="M62.2187 57.1562H59.9687C59.8281 57.1562 59.5469 57.2969 59.5469 57.4375L59.4062 58.1406L59.2656 57.8594C58.7031 57.1562 57.7187 56.875 56.5937 56.875C54.0625 56.875 51.8125 58.8437 51.3906 61.5156C51.1094 62.9219 51.5312 64.1875 52.2344 65.0312C52.9375 65.875 53.9219 66.1562 55.1875 66.1562C57.2969 66.1562 58.4219 64.8906 58.4219 64.8906L58.2812 65.5937C58.2812 65.875 58.4219 66.0156 58.7031 66.0156H60.8125C61.0937 66.0156 61.375 65.7344 61.5156 65.4531L62.7812 57.5781C62.6406 57.4375 62.3594 57.1562 62.2187 57.1562ZM58.9844 61.6562C58.7031 62.9219 57.7187 63.9062 56.3125 63.9062C55.6094 63.9062 55.0469 63.625 54.7656 63.3437C54.4844 62.9219 54.3437 62.3594 54.3437 61.6562C54.4844 60.3906 55.6094 59.4062 56.875 59.4062C57.5781 59.4062 58 59.6875 58.4219 59.9688C58.8437 60.3906 58.9844 61.0937 58.9844 61.6562Z" fill="#263B80"/>
<path d="M96.5312 57.1562H94.2812C94.1406 57.1562 93.8593 57.2969 93.8593 57.4375L93.7187 58.1406L93.5781 57.8594C93.0156 57.1562 92.0312 56.875 90.9062 56.875C88.375 56.875 86.125 58.8437 85.7031 61.5156C85.4218 62.9219 85.8437 64.1875 86.5468 65.0312C87.25 65.875 88.2343 66.1562 89.5 66.1562C91.6093 66.1562 92.7343 64.8906 92.7343 64.8906L92.5937 65.5937C92.5937 65.875 92.7343 66.0156 93.0156 66.0156H95.125C95.4062 66.0156 95.6875 65.7344 95.8281 65.4531L97.0937 57.5781C96.9531 57.4375 96.8125 57.1562 96.5312 57.1562ZM93.2968 61.6562C93.0156 62.9219 92.0312 63.9062 90.625 63.9062C89.9218 63.9062 89.3593 63.625 89.0781 63.3437C88.7968 62.9219 88.6562 62.3594 88.6562 61.6562C88.7968 60.3906 89.9218 59.4062 91.1875 59.4062C91.8906 59.4062 92.3125 59.6875 92.7343 59.9688C93.2968 60.3906 93.4375 61.0937 93.2968 61.6562Z" fill="#139AD6"/>
<path d="M74.4531 57.1562H72.0625C71.7813 57.1562 71.6406 57.2969 71.5 57.4375L68.4063 62.2188L67 57.7187C66.8594 57.4375 66.7188 57.2969 66.2969 57.2969H64.0469C63.7656 57.2969 63.625 57.5781 63.625 57.8594L66.1562 65.3125L63.7656 68.6875C63.625 68.9688 63.7656 69.3906 64.0469 69.3906H66.2969C66.5781 69.3906 66.7187 69.25 66.8594 69.1094L74.5938 58C75.0156 57.5781 74.7344 57.1562 74.4531 57.1562Z" fill="#263B80"/>
<path d="M99.2031 53.0781L97.2343 65.7344C97.2343 66.0156 97.375 66.1562 97.6562 66.1562H99.625C99.9062 66.1562 100.187 65.875 100.328 65.5937L102.297 53.2187C102.297 52.9375 102.156 52.7969 101.875 52.7969H99.625C99.4843 52.6562 99.3437 52.7969 99.2031 53.0781Z" fill="#139AD6"/>
<path d="M29.875 48.4375C28.8906 47.3125 27.0625 46.75 24.5312 46.75H17.5C17.0781 46.75 16.6562 47.1719 16.5156 47.5938L13.7031 66.0156C13.7031 66.4375 13.9844 66.7187 14.2656 66.7187H18.625L19.75 59.8281V60.1094C19.8906 59.6875 20.3125 59.2656 20.7344 59.2656H22.8437C26.9219 59.2656 30.0156 57.5781 31 52.9375C31 52.7969 31 52.6563 31 52.5156C30.8594 52.5156 30.8594 52.5156 31 52.5156C31.1406 50.6875 30.8594 49.5625 29.875 48.4375Z" fill="#263B80"/>
<path d="M30.8595 52.5156C30.8595 52.6563 30.8595 52.7969 30.8595 52.9375C29.8751 57.7187 26.7813 59.2656 22.7032 59.2656H20.5938C20.172 59.2656 19.7501 59.6875 19.6095 60.1094L18.2032 68.6875C18.2032 68.9687 18.3438 69.25 18.7657 69.25H22.422C22.8438 69.25 23.2657 68.9687 23.2657 68.5469V68.4063L23.9688 64.0469V63.7656C23.9688 63.3437 24.3907 63.0625 24.8126 63.0625H25.3751C28.8907 63.0625 31.7032 61.6562 32.4063 57.4375C32.6876 55.75 32.547 54.2031 31.7032 53.2188C31.5626 52.9375 31.2813 52.6563 30.8595 52.5156Z" fill="#139AD6"/>
<path d="M29.8749 52.0937C29.7343 52.0937 29.5937 51.9531 29.453 51.9531C29.3124 51.9531 29.1718 51.9531 29.0312 51.8125C28.4687 51.6719 27.9062 51.6719 27.203 51.6719H21.7187C21.578 51.6719 21.4374 51.6719 21.2968 51.8125C21.0155 51.9531 20.8749 52.2344 20.8749 52.5156L19.7499 59.8281V60.1094C19.8905 59.6875 20.3124 59.2656 20.7343 59.2656H22.8437C26.9218 59.2656 30.0155 57.5781 30.9999 52.9375C30.9999 52.7969 30.9999 52.6563 31.1405 52.5156C30.8593 52.375 30.7187 52.2344 30.4374 52.2344C30.0155 52.0937 30.0155 52.0937 29.8749 52.0937Z" fill="#232C65"/>
<defs>
<filter id="filter0_d" x="0" y="0" width="121" height="121" filterUnits="userSpaceOnUse" color-interpolation-filters="sRGB">
<feFlood flood-opacity="0" result="BackgroundImageFix"/>
<feColorMatrix in="SourceAlpha" type="matrix" values="0 0 0 0 0 0 0 0 0 0 0 0 0 0 0 0 0 0 127 0"/>
<feOffset dx="3" dy="3"/>
<feGaussianBlur stdDeviation="1"/>
<feColorMatrix type="matrix" values="0 0 0 0 0 0 0 0 0 0 0 0 0 0 0 0 0 0 0.5 0"/>
<feBlend mode="normal" in2="BackgroundImageFix" result="effect1_dropShadow"/>
<feBlend mode="normal" in="SourceGraphic" in2="effect1_dropShadow" result="shape"/>
</filter>
</defs>
</svg>
