<svg width="32" height="32" viewBox="0 0 32 32" fill="none" xmlns="http://www.w3.org/2000/svg">
<path d="M22.1357 15.4229C23.1732 14.6495 24.0066 13.6887 24.5782 12.6068C25.1499 11.5248 25.4463 10.3473 25.447 9.15562V8.03711C25.3802 5.8857 24.3552 3.84201 22.5902 2.34095C20.8251 0.839898 18.4595 0 15.9965 0C13.5336 0 11.1679 0.839898 9.40288 2.34095C7.63787 3.84201 6.61289 5.8857 6.54609 8.03711V9.15562C6.54808 10.3478 6.84575 11.5253 7.41859 12.6073C7.99144 13.6892 8.82584 14.6498 9.86435 15.4229C7.03066 16.1147 4.53332 17.5967 2.75257 19.6433C0.97182 21.69 0.00523785 24.189 0 26.76V30.7842C0 31.1067 0.146584 31.4159 0.407504 31.6439C0.668424 31.8719 1.02231 32 1.3913 32H30.6087C30.9777 32 31.3316 31.8719 31.5925 31.6439C31.8534 31.4159 32 31.1067 32 30.7842V26.76C31.9948 24.189 31.0282 21.69 29.2474 19.6433C27.4667 17.5967 24.9693 16.1147 22.1357 15.4229ZM9.3287 8.03711C9.38462 6.52437 10.1116 5.08994 11.356 4.03714C12.6003 2.98433 14.2645 2.3957 15.9965 2.3957C17.7286 2.3957 19.3927 2.98433 20.6371 4.03714C21.8814 5.08994 22.6084 6.52437 22.6643 8.03711V9.15562C22.6084 10.6684 21.8814 12.1028 20.6371 13.1556C19.3927 14.2084 17.7286 14.797 15.9965 14.797C14.2645 14.797 12.6003 14.2084 11.356 13.1556C10.1116 12.1028 9.38462 10.6684 9.3287 9.15562V8.03711ZM29.2174 29.5685H2.78261V26.76C2.78629 24.2814 3.9147 21.9053 5.92038 20.1526C7.92606 18.4 10.6453 17.4139 13.4817 17.4107H18.5252C21.3605 17.4155 24.0779 18.4023 26.0821 20.1548C28.0863 21.9072 29.2137 24.2825 29.2174 26.76V29.5685Z" fill="#FF9839"/>
</svg>
