<svg width="27" height="32" viewBox="0 0 27 32" fill="none" xmlns="http://www.w3.org/2000/svg">
<path d="M18.6902 15.254C19.5558 14.5156 20.251 13.5984 20.728 12.5654C21.2049 11.5324 21.4521 10.4083 21.4527 9.27052V8.20267C21.397 6.14869 20.5419 4.19755 19.0694 2.76448C17.5969 1.3314 15.6233 0.529541 13.5685 0.529541C11.5138 0.529541 9.54018 1.3314 8.0677 2.76448C6.59521 4.19755 5.74011 6.14869 5.68438 8.20267V9.27052C5.68604 10.4087 5.93438 11.5329 6.41228 12.5659C6.89018 13.5988 7.5863 14.5159 8.45268 15.254C6.08865 15.9145 4.0052 17.3294 2.51959 19.2833C1.03397 21.2372 0.227591 23.6231 0.223221 26.0777V29.9196C0.223221 30.2275 0.34551 30.5227 0.563186 30.7404C0.780862 30.9581 1.07609 31.0803 1.38393 31.0803H25.7589C26.0668 31.0803 26.362 30.9581 26.5797 30.7404C26.7974 30.5227 26.9196 30.2275 26.9196 29.9196V26.0777C26.9153 23.6231 26.1089 21.2372 24.6233 19.2833C23.1377 17.3294 21.0542 15.9145 18.6902 15.254ZM8.00581 8.20267C8.05246 6.75844 8.65898 5.38897 9.6971 4.38385C10.7352 3.37872 12.1236 2.81674 13.5685 2.81674C15.0135 2.81674 16.4018 3.37872 17.44 4.38385C18.4781 5.38897 19.0846 6.75844 19.1313 8.20267V9.27052C19.0846 10.7148 18.4781 12.0842 17.44 13.0893C16.4018 14.0945 15.0135 14.6565 13.5685 14.6565C12.1236 14.6565 10.7352 14.0945 9.6971 13.0893C8.65898 12.0842 8.05246 10.7148 8.00581 9.27052V8.20267ZM24.5982 28.7589H2.54465V26.0777C2.54772 23.7113 3.48911 21.4428 5.16237 19.7695C6.83564 18.0962 9.10419 17.1548 11.4705 17.1518H15.6781C18.0435 17.1564 20.3105 18.0984 21.9825 19.7715C23.6546 21.4446 24.5951 23.7123 24.5982 26.0777V28.7589Z" fill="#FF9839"/>
</svg>
