<svg width="64" height="42" viewBox="0 0 64 42" fill="none" xmlns="http://www.w3.org/2000/svg">
<rect x="1" y="1" width="62" height="40" rx="9" fill="black" stroke="white" stroke-width="2"/>
<path d="M37.6667 23.6667H36.6133L36.24 23.3067C37.5467 21.7867 38.3333 19.8133 38.3333 17.6667C38.3333 12.88 34.4533 9 29.6667 9C24.88 9 21 12.88 21 17.6667C21 22.4533 24.88 26.3333 29.6667 26.3333C31.8133 26.3333 33.7867 25.5467 35.3067 24.24L35.6667 24.6133V25.6667L42.3333 32.32L44.32 30.3333L37.6667 23.6667ZM29.6667 23.6667C26.3467 23.6667 23.6667 20.9867 23.6667 17.6667C23.6667 14.3467 26.3467 11.6667 29.6667 11.6667C32.9867 11.6667 35.6667 14.3467 35.6667 17.6667C35.6667 20.9867 32.9867 23.6667 29.6667 23.6667Z" fill="#FF9839"/>
</svg>
