<svg width="36" height="36" viewBox="0 0 36 36" fill="none" xmlns="http://www.w3.org/2000/svg">
<g clip-path="url(#clip0)">
<path fill-rule="evenodd" clip-rule="evenodd" d="M31.6017 0C34.0292 0 36 1.97086 36 4.39833V31.6017C36 34.0291 34.0291 36 31.6017 36H4.39833C1.97086 36 0 34.0291 0 31.6017V4.39833C0 1.97086 1.97079 0 4.39833 0H31.6017V0ZM30.1274 12.349C29.8364 11.2599 28.9787 10.4022 27.8897 10.1112C25.9154 9.58219 18 9.58219 18 9.58219C18 9.58219 10.0846 9.58219 8.11034 10.1112C7.02148 10.4022 6.16366 11.2599 5.87257 12.349C5.34375 14.323 5.34375 18.4417 5.34375 18.4417C5.34375 18.4417 5.34375 22.5603 5.87257 24.5341C6.16366 25.6232 7.02148 26.4811 8.11034 26.7721C10.0846 27.3009 18 27.3009 18 27.3009C18 27.3009 25.9154 27.3009 27.8897 26.7721C28.9787 26.4811 29.8364 25.6232 30.1274 24.5341C30.6562 22.5603 30.6562 18.4417 30.6562 18.4417C30.6562 18.4417 30.6562 14.323 30.1274 12.349ZM15.4686 22.2386V14.6448L22.0449 18.4417L15.4686 22.2386Z" fill="#FF9839"/>
</g>
<defs>
<clipPath id="clip0">
<rect width="36" height="36" fill="white"/>
</clipPath>
</defs>
</svg>
